<?xml version="1.0" encoding="UTF-8"?>
<svg version="1.1" xmlns="http://www.w3.org/2000/svg" width="187" height="269">
<path d="M0 0 C61.71 0 123.42 0 187 0 C187 88.77 187 177.54 187 269 C125.29 269 63.58 269 0 269 C0 180.23 0 91.46 0 0 Z " fill="#F5CAC9" transform="translate(0,0)"/>
<path d="M0 0 C1.4540625 0.0309375 1.4540625 0.0309375 2.9375 0.0625 C2.9375 0.7225 2.9375 1.3825 2.9375 2.0625 C4.02015137 1.90023926 5.10280273 1.73797852 6.21826172 1.57080078 C11.62599517 0.89866903 17.00277275 0.91902844 22.4453125 0.9296875 C24.07169144 0.92825241 24.07169144 0.92825241 25.73092651 0.92678833 C28.01186176 0.92611076 30.29279898 0.92793542 32.57373047 0.93212891 C36.05831229 0.93749355 39.54276584 0.93216416 43.02734375 0.92578125 C45.25000028 0.9264419 47.47265674 0.9277228 49.6953125 0.9296875 C50.73293732 0.92766327 51.77056213 0.92563904 52.83963013 0.92355347 C57.67442916 0.9391881 62.17252137 1.17146997 66.9375 2.0625 C68.88157952 2.13901913 70.82788078 2.17061623 72.7734375 2.16015625 C74.36865234 2.15532227 74.36865234 2.15532227 75.99609375 2.15039062 C77.09050781 2.14201172 78.18492187 2.13363281 79.3125 2.125 C80.43011719 2.12048828 81.54773438 2.11597656 82.69921875 2.11132812 C85.44536804 2.09959244 88.19140586 2.08317363 90.9375 2.0625 C91.2675 2.7225 91.5975 3.3825 91.9375 4.0625 C94.46483235 4.71805119 94.46483235 4.71805119 96.9375 5.0625 C96.9375 4.4025 96.9375 3.7425 96.9375 3.0625 C97.5975 3.0625 98.2575 3.0625 98.9375 3.0625 C98.9375 4.0525 98.9375 5.0425 98.9375 6.0625 C102.5675 6.0625 106.1975 6.0625 109.9375 6.0625 C109.9375 19.9225 109.9375 33.7825 109.9375 48.0625 C48.2275 48.0625 -13.4825 48.0625 -77.0625 48.0625 C-77.0625 38.4925 -77.0625 28.9225 -77.0625 19.0625 C-74.4225 19.0625 -71.7825 19.0625 -69.0625 19.0625 C-68.0725 18.7325 -67.0825 18.4025 -66.0625 18.0625 C-62.97572371 17.80526864 -60.81289474 18.13450152 -57.8125 19 C-53.55883933 20.20520386 -49.45308067 20.68417332 -45.0625 21.0625 C-45.0625 18.4225 -45.0625 15.7825 -45.0625 13.0625 C-38.7925 12.7325 -32.5225 12.4025 -26.0625 12.0625 C-26.0625 12.7225 -26.0625 13.3825 -26.0625 14.0625 C-21.7725 14.0625 -17.4825 14.0625 -13.0625 14.0625 C-13.5575 12.0825 -13.5575 12.0825 -14.0625 10.0625 C-11.4225 9.7325 -8.7825 9.4025 -6.0625 9.0625 C-6.0625 8.4025 -6.0625 7.7425 -6.0625 7.0625 C-8.3725 6.7325 -10.6825 6.4025 -13.0625 6.0625 C-12.5 4.125 -12.5 4.125 -11.0625 2.0625 C-7.5 1.375 -7.5 1.375 -4.0625 1.0625 C-3.0625 0.0625 -3.0625 0.0625 0 0 Z " fill="#F7F4E9" transform="translate(77.0625,220.9375)"/>
<path d="M0 0 C2.475 -0.020625 4.95 -0.04125 7.5 -0.0625 C8.26248047 -0.071604 9.02496094 -0.08070801 9.81054688 -0.09008789 C10.44025391 -0.09258545 11.06996094 -0.09508301 11.71875 -0.09765625 C12.34716797 -0.10289307 12.97558594 -0.10812988 13.62304688 -0.11352539 C16 0 16 0 19.5612793 0.48632812 C24.7991357 1.16550534 30.02488056 1.23195562 35.30078125 1.31640625 C36.44222092 1.33723267 37.58366058 1.35805908 38.75968933 1.3795166 C41.93958426 1.4348684 45.11950295 1.48534851 48.29953003 1.53242874 C50.31982501 1.56260943 52.34008729 1.59451297 54.36035156 1.62667847 C98.56829189 2.31819343 142.78830598 2.08691508 187 2 C187 7.61 187 13.22 187 19 C125.29 19 63.58 19 0 19 C0 12.73 0 6.46 0 0 Z " fill="#C7DECA" transform="translate(0,250)"/>
<path d="M0 0 C1.32 0 2.64 0 4 0 C4 0.66 4 1.32 4 2 C5.98 2 7.96 2 10 2 C10 2.66 10 3.32 10 4 C9.01 4.495 9.01 4.495 8 5 C12.62 5 17.24 5 22 5 C22 5.66 22 6.32 22 7 C21.01 7.66 20.02 8.32 19 9 C17.96352976 10.30518475 16.95577057 11.63461347 16 13 C16.66 13.66 17.32 14.32 18 15 C18 15.66 18 16.32 18 17 C21.96 16.67 25.92 16.34 30 16 C30.66 16.99 31.32 17.98 32 19 C34.92202417 19.14031566 34.92202417 19.14031566 38 18 C39.46581614 15.46032588 40.26532365 12.82914839 41 10 C41.59167969 9.95101562 42.18335938 9.90203125 42.79296875 9.8515625 C47.23795538 9.4309928 50.89474423 8.83656179 55 7 C57.32748694 6.31320058 59.65986656 5.64238957 62 5 C61.01 4.01 61.01 4.01 60 3 C62.26825944 3 64.53660624 3.00672626 66.8046875 3.03515625 C67.81789063 3.04417969 68.83109375 3.05320312 69.875 3.0625 C70.88304687 3.07410156 71.89109375 3.08570312 72.9296875 3.09765625 C76.50826981 3.05193954 76.50826981 3.05193954 82 2 C82 17.51 82 33.02 82 49 C70.2522175 49.61830434 58.6750595 50.16094965 46.9375 50.125 C45.59570222 50.1285803 44.25390526 50.13248647 42.91210938 50.13671875 C41.02008789 50.13478516 41.02008789 50.13478516 39.08984375 50.1328125 C37.40169556 50.13112061 37.40169556 50.13112061 35.67944336 50.12939453 C33 50 33 50 31 49 C31.875 45.125 31.875 45.125 33 44 C32.01 43.505 32.01 43.505 31 43 C31 42.34 31 41.68 31 41 C30.01 40.505 30.01 40.505 29 40 C29.495 39.01 29.495 39.01 30 38 C29.01 38 28.02 38 27 38 C26.505 38.99 26.505 38.99 26 40 C24.02 40 22.04 40 20 40 C20 39.01 20 38.02 20 37 C18.99453125 37.24363281 18.99453125 37.24363281 17.96875 37.4921875 C7.66249549 39.25509946 -3.66224103 37.99129196 -14 37 C-13.67 36.01 -13.34 35.02 -13 34 C-11.68 34 -10.36 34 -9 34 C-8.67 32.68 -8.34 31.36 -8 30 C-7.16855469 29.91363281 -6.33710937 29.82726562 -5.48046875 29.73828125 C-4.39378906 29.59777344 -3.30710937 29.45726563 -2.1875 29.3125 C-1.10855469 29.18488281 -0.02960938 29.05726562 1.08203125 28.92578125 C4.15799954 28.24355649 4.15799954 28.24355649 5.90625 25.65625 C7.36042575 22.12468032 6.79258207 19.67469868 6 16 C3.03 16 0.06 16 -3 16 C-2.34 14.02 -1.68 12.04 -1 10 C1.97 10 4.94 10 8 10 C7.67 10.99 7.34 11.98 7 13 C8.65 11.68 10.3 10.36 12 9 C12.33 9.66 12.66 10.32 13 11 C13.99 11 14.98 11 16 11 C15.67 10.01 15.34 9.02 15 8 C8.07 7.505 8.07 7.505 1 7 C0.34 5.02 -0.32 3.04 -1 1 C-0.67 0.67 -0.34 0.34 0 0 Z " fill="#F6AFB6" transform="translate(105,62)"/>
<path d="M0 0 C1.3125 2.0625 1.3125 2.0625 2 4 C2.34675781 3.49855469 2.69351563 2.99710938 3.05078125 2.48046875 C6.05714796 0.197076 8.51726182 0.94210899 12.1875 1.3125 C13.45980469 1.43238281 14.73210938 1.55226562 16.04296875 1.67578125 C17.01878906 1.78277344 17.99460938 1.88976563 19 2 C19.33 1.01 19.66 0.02 20 -1 C22.3431213 -0.74438677 24.67843403 -0.40729228 27 0 C27.495 0.99 27.495 0.99 28 2 C30.3140622 2.73075648 32.64828869 3.40138258 35 4 C35 4.99 35 5.98 35 7 C33.35 7.33 31.7 7.66 30 8 C30 8.66 30 9.32 30 10 C34.29 10 38.58 10 43 10 C42.67 10.99 42.34 11.98 42 13 C43.65 13.33 45.3 13.66 47 14 C47 13.34 47 12.68 47 12 C48.65 12 50.3 12 52 12 C52.495 13.485 52.495 13.485 53 15 C49.5980513 17.09350689 46.94727588 17.17942163 43 17 C43 17.66 43 18.32 43 19 C41.68 19.33 40.36 19.66 39 20 C39 20.66 39 21.32 39 22 C40.98 22.495 40.98 22.495 43 23 C43 23.66 43 24.32 43 25 C39.7 25.33 36.4 25.66 33 26 C33 26.66 33 27.32 33 28 C33.66 28.33 34.32 28.66 35 29 C32.69 29.66 30.38 30.32 28 31 C28 31.33 28 31.66 28 32 C30.31 32.33 32.62 32.66 35 33 C33.734375 34.515625 33.734375 34.515625 32 36 C28.25 35.75 28.25 35.75 25.89453125 35.39453125 C22.25215073 34.89806643 18.60422311 34.66396899 14.9375 34.4375 C13.62652344 34.35371094 12.31554688 34.26992187 10.96484375 34.18359375 C9.98644531 34.12300781 9.00804687 34.06242187 8 34 C8 35.32 8 36.64 8 38 C8 38.33 8 38.66 8 39 C3.58321995 40.10813129 -0.70298094 40.09633877 -5.22265625 40.02734375 C-6.82877394 40.0147035 -8.43489384 40.0023421 -10.04101562 39.99023438 C-12.55809521 39.96538101 -15.07505823 39.93733395 -17.59204102 39.90405273 C-20.0314203 39.87384297 -22.47064959 39.85607999 -24.91015625 39.83984375 C-25.66128189 39.82638412 -26.41240753 39.8129245 -27.18629456 39.79905701 C-31.23085392 39.74279665 -31.23085392 39.74279665 -35.00561523 41.01000977 C-37 42 -37 42 -45 42 C-45 31.44 -45 20.88 -45 10 C-40.38 10 -35.76 10 -31 10 C-31 10.66 -31 11.32 -31 12 C-30.34 12 -29.68 12 -29 12 C-28.72027344 11.38511719 -28.44054687 10.77023438 -28.15234375 10.13671875 C-26.15697636 6.11390412 -24.75326273 3.49192668 -20.9375 1 C-14.49569548 -1.09535619 -6.53900916 -1.90288626 0 0 Z " fill="#F6B4B1" transform="translate(45,54)"/>
<path d="M0 0 C1.4540625 0.0309375 1.4540625 0.0309375 2.9375 0.0625 C2.9375 0.7225 2.9375 1.3825 2.9375 2.0625 C4.56147705 1.81910889 4.56147705 1.81910889 6.21826172 1.57080078 C11.62599517 0.89866903 17.00277275 0.91902844 22.4453125 0.9296875 C24.07169144 0.92825241 24.07169144 0.92825241 25.73092651 0.92678833 C28.01186176 0.92611076 30.29279898 0.92793542 32.57373047 0.93212891 C36.05831229 0.93749355 39.54276584 0.93216416 43.02734375 0.92578125 C45.25000028 0.9264419 47.47265674 0.9277228 49.6953125 0.9296875 C50.73293732 0.92766327 51.77056213 0.92563904 52.83963013 0.92355347 C57.67442916 0.9391881 62.17252137 1.17146997 66.9375 2.0625 C68.88157952 2.13901913 70.82788078 2.17061623 72.7734375 2.16015625 C74.36865234 2.15532227 74.36865234 2.15532227 75.99609375 2.15039062 C77.09050781 2.14201172 78.18492187 2.13363281 79.3125 2.125 C80.43011719 2.12048828 81.54773438 2.11597656 82.69921875 2.11132812 C85.44536804 2.09959244 88.19140586 2.08317363 90.9375 2.0625 C91.4325 3.0525 91.4325 3.0525 91.9375 4.0625 C94.46483235 4.71805119 94.46483235 4.71805119 96.9375 5.0625 C96.9375 4.4025 96.9375 3.7425 96.9375 3.0625 C97.5975 3.0625 98.2575 3.0625 98.9375 3.0625 C98.9375 4.0525 98.9375 5.0425 98.9375 6.0625 C102.5675 6.0625 106.1975 6.0625 109.9375 6.0625 C109.9375 9.0325 109.9375 12.0025 109.9375 15.0625 C98.65980427 15.19522019 87.38208503 15.32572292 76.10433388 15.45365143 C70.86348875 15.51316485 65.62265338 15.57334752 60.38183594 15.63525391 C35.23258176 15.93179314 10.08865393 16.14687044 -15.0625 16.0625 C-15.0625 15.4025 -15.0625 14.7425 -15.0625 14.0625 C-14.4025 14.0625 -13.7425 14.0625 -13.0625 14.0625 C-13.3925 12.7425 -13.7225 11.4225 -14.0625 10.0625 C-11.4225 9.7325 -8.7825 9.4025 -6.0625 9.0625 C-6.0625 8.4025 -6.0625 7.7425 -6.0625 7.0625 C-8.3725 6.7325 -10.6825 6.4025 -13.0625 6.0625 C-12.5 4.125 -12.5 4.125 -11.0625 2.0625 C-7.5 1.375 -7.5 1.375 -4.0625 1.0625 C-3.0625 0.0625 -3.0625 0.0625 0 0 Z " fill="#E1EEE0" transform="translate(77.0625,220.9375)"/>
<path d="M0 0 C1.3125 2.0625 1.3125 2.0625 2 4 C2.34675781 3.49855469 2.69351563 2.99710938 3.05078125 2.48046875 C6.05714796 0.197076 8.51726182 0.94210899 12.1875 1.3125 C13.45980469 1.43238281 14.73210938 1.55226562 16.04296875 1.67578125 C17.01878906 1.78277344 17.99460938 1.88976563 19 2 C19.33 1.01 19.66 0.02 20 -1 C22.3431213 -0.74438677 24.67843403 -0.40729228 27 0 C27.495 0.99 27.495 0.99 28 2 C30.3140622 2.73075648 32.64828869 3.40138258 35 4 C35 4.99 35 5.98 35 7 C33.35 7.33 31.7 7.66 30 8 C30 8.66 30 9.32 30 10 C34.29 10 38.58 10 43 10 C42.67 10.99 42.34 11.98 42 13 C43.65 13.33 45.3 13.66 47 14 C47 13.34 47 12.68 47 12 C48.65 12 50.3 12 52 12 C52.495 13.485 52.495 13.485 53 15 C49.5980513 17.09350689 46.94727588 17.17942163 43 17 C43 17.66 43 18.32 43 19 C41.68 19.33 40.36 19.66 39 20 C39 20.66 39 21.32 39 22 C40.98 22.495 40.98 22.495 43 23 C43 23.66 43 24.32 43 25 C34.24996282 26.6039348 25.89252296 27.26197285 17 27 C17 25.02 17 23.04 17 21 C17.99 21 18.98 21 20 21 C19.505 19.515 19.505 19.515 19 18 C19.66 18 20.32 18 21 18 C21.33 16.68 21.66 15.36 22 14 C21.01 14 20.02 14 19 14 C19 13.01 19 12.02 19 11 C18.01 11 17.02 11 16 11 C13.64046906 13.35953094 13.50858587 14.77895617 13 18 C12.13375 17.4740625 12.13375 17.4740625 11.25 16.9375 C8.64198224 15.85082593 7.60582371 16.06934867 5 17 C5 18.32 5 19.64 5 21 C5.66 21 6.32 21 7 21 C7 21.99 7 22.98 7 24 C7.66 24 8.32 24 9 24 C9 25.32 9 26.64 9 28 C7.33388095 28.042721 5.66617115 28.04063832 4 28 C3.67 27.67 3.34 27.34 3 27 C-3.74755077 25.97071259 -10.49172515 25.25785905 -17.125 27.0625 C-21.91673658 28.22179111 -21.91673658 28.22179111 -25 27 C-25.66 26.01 -26.32 25.02 -27 24 C-29.56282742 23.27034634 -29.56282742 23.27034634 -32 23 C-31.67 21.35 -31.34 19.7 -31 18 C-28.69 18 -26.38 18 -24 18 C-23.7525 18.804375 -23.505 19.60875 -23.25 20.4375 C-22.2758309 23.13654257 -22.2758309 23.13654257 -20 23.875 C-17.9267719 24.17260908 -17.9267719 24.17260908 -16 23 C-16 21.68 -16 20.36 -16 19 C-15.34 19 -14.68 19 -14 19 C-14 19.66 -14 20.32 -14 21 C-11.03 20.67 -8.06 20.34 -5 20 C-5 19.01 -5 18.02 -5 17 C-4.01 16.34 -3.02 15.68 -2 15 C-3.17755859 14.81824219 -3.17755859 14.81824219 -4.37890625 14.6328125 C-10.05051213 13.72813917 -15.52492254 12.7420701 -21 11 C-21 10.34 -21 9.68 -21 9 C-20.01 9 -19.02 9 -18 9 C-18 8.34 -18 7.68 -18 7 C-18.99 6.67 -19.98 6.34 -21 6 C-20.6875 4.125 -20.6875 4.125 -20 2 C-16.67557501 -0.21628333 -15.04183681 -0.38958598 -11.125 -0.6875 C-10.09632812 -0.77386719 -9.06765625 -0.86023437 -8.0078125 -0.94921875 C-5.12081123 -0.99796033 -2.76643362 -0.81568025 0 0 Z " fill="#EAB1B8" transform="translate(45,54)"/>
<path d="M0 0 C3.875 0.1875 3.875 0.1875 6.81274414 1.16186523 C12.32213262 2.80050049 18.04187359 2.63943092 23.74609375 2.78515625 C25.60053856 2.84394203 25.60053856 2.84394203 27.4924469 2.90391541 C31.43226224 3.02761782 35.3722941 3.13949994 39.3125 3.25 C43.24905116 3.36584467 47.18549282 3.48425924 51.12184143 3.60679626 C53.56697393 3.68235613 56.01223779 3.75381054 58.45762634 3.8205719 C64.33010159 3.99659407 70.06154026 4.32850622 75.875 5.1875 C75.215 6.1775 74.555 7.1675 73.875 8.1875 C71.88214063 8.56116113 69.88136471 8.89490515 67.875 9.1875 C67.215 9.8475 66.555 10.5075 65.875 11.1875 C101.845 11.5175 137.815 11.8475 174.875 12.1875 C174.875 12.5175 174.875 12.8475 174.875 13.1875 C72.94650432 14.48664433 72.94650432 14.48664433 36.9375 13.875 C35.78745483 13.85784943 34.63740967 13.84069885 33.45251465 13.82302856 C18.18957555 13.58082358 3.07127003 12.62518009 -12.125 11.1875 C-12.125 7.8875 -12.125 4.5875 -12.125 1.1875 C-10.825625 1.208125 -9.52625 1.22875 -8.1875 1.25 C-6.83334367 1.27149454 -5.47743917 1.25898199 -4.125 1.1875 C-3.125 0.1875 -3.125 0.1875 0 0 Z " fill="#E5EEE1" transform="translate(12.125,238.8125)"/>
<path d="M0 0 C0.33 0.33 0.66 0.66 1 1 C4.40035333 1.02635933 7.78696641 0.97048663 11.18554688 0.87304688 C13.12392963 0.84317153 15.06324025 0.91525384 17 1 C19 3 19 3 19.22705078 4.97119141 C19.21657715 5.75671387 19.20610352 6.54223633 19.1953125 7.3515625 C19.18886719 8.20234375 19.18242187 9.053125 19.17578125 9.9296875 C19.15902344 10.81914063 19.14226562 11.70859375 19.125 12.625 C19.11597656 13.5221875 19.10695312 14.419375 19.09765625 15.34375 C19.07405132 17.56261322 19.03817962 19.7813397 19 22 C16.03 22 13.06 22 10 22 C10 21.67 10 21.34 10 21 C8.02 20.67 6.04 20.34 4 20 C4 20.66 4 21.32 4 22 C1.93827387 22.33808686 -0.1244203 22.67027361 -2.1875 23 C-3.33605469 23.185625 -4.48460937 23.37125 -5.66796875 23.5625 C-8.50415393 23.93489477 -11.14719564 24.08596021 -14 24 C-13.34 22.68 -12.68 21.36 -12 20 C-9.69 20 -7.38 20 -5 20 C-5 19.01 -5 18.02 -5 17 C-5.70125 17.144375 -6.4025 17.28875 -7.125 17.4375 C-12.86719815 18.56097355 -18.15220515 19.2206715 -24 19 C-24.33 18.01 -24.66 17.02 -25 16 C-25.66 15.34 -26.32 14.68 -27 14 C-26.625 11.875 -26.625 11.875 -26 10 C-26.66 9.67 -27.32 9.34 -28 9 C-27.67 8.01 -27.34 7.02 -27 6 C-24.36 6 -21.72 6 -19 6 C-19 6.99 -19 7.98 -19 9 C-19.99 9 -20.98 9 -22 9 C-22 9.99 -22 10.98 -22 12 C-21.43152344 11.7834375 -20.86304688 11.566875 -20.27734375 11.34375 C-15.2757781 9.54018042 -11.31037964 8.6610396 -6 9 C-6 8.01 -6 7.02 -6 6 C-8.97 5.505 -8.97 5.505 -12 5 C-11.6875 3.0625 -11.6875 3.0625 -11 1 C-7.11651516 -0.29449495 -4.09302664 -0.13203312 0 0 Z " fill="#F7ACB6" transform="translate(168,79)"/>
<path d="M0 0 C7.42857143 -0.14285714 7.42857143 -0.14285714 11 1 C11 1.66 11 2.32 11 3 C11.99 2.67 12.98 2.34 14 2 C15.86461243 2 17.72934522 2.00342306 19.59375 2.03125 C24.08114517 1.97297214 28.53864576 1.45925705 33 1 C33 1.99 33 2.98 33 4 C30.69 4 28.38 4 26 4 C25.67 4.99 25.34 5.98 25 7 C33.415 6.505 33.415 6.505 42 6 C42 5.34 42 4.68 42 4 C44.31 4 46.62 4 49 4 C49 4.33 49 4.66 49 5 C51.64 5.33 54.28 5.66 57 6 C57 9.3 57 12.6 57 16 C45.31337521 16.82424558 33.65012131 17.10961488 21.9375 17.125 C21.26217224 17.12749756 20.58684448 17.12999512 19.89105225 17.13256836 C17.95732501 17.13844399 16.02357761 17.13580012 14.08984375 17.1328125 C12.40169556 17.13112061 12.40169556 17.13112061 10.67944336 17.12939453 C8 17 8 17 6 16 C6.875 12.125 6.875 12.125 8 11 C7.34 10.67 6.68 10.34 6 10 C6 9.34 6 8.68 6 8 C5.34 7.67 4.68 7.34 4 7 C4.33 6.34 4.66 5.68 5 5 C4.01 5 3.02 5 2 5 C1.34 5.66 0.68 6.32 0 7 C0 6.34 0 5.68 0 5 C-0.99 4.67 -1.98 4.34 -3 4 C-2.01 3.67 -1.02 3.34 0 3 C0 2.01 0 1.02 0 0 Z " fill="#FABEC0" transform="translate(130,95)"/>
<path d="M0 0 C5.94 0 11.88 0 18 0 C18 0.99 18 1.98 18 3 C17.01 3.33 16.02 3.66 15 4 C15 4.66 15 5.32 15 6 C19.29 6 23.58 6 28 6 C27.67 6.99 27.34 7.98 27 9 C29.475 9.495 29.475 9.495 32 10 C32 9.34 32 8.68 32 8 C33.65 8 35.3 8 37 8 C37.495 9.485 37.495 9.485 38 11 C34.5980513 13.09350689 31.94727588 13.17942163 28 13 C28 13.66 28 14.32 28 15 C26.68 15.33 25.36 15.66 24 16 C24 16.66 24 17.32 24 18 C25.32 18.33 26.64 18.66 28 19 C28 19.66 28 20.32 28 21 C19.24996282 22.6039348 10.89252296 23.26197285 2 23 C2 21.02 2 19.04 2 17 C2.99 17 3.98 17 5 17 C4.67 16.01 4.34 15.02 4 14 C4.66 14 5.32 14 6 14 C6.33 12.68 6.66 11.36 7 10 C6.01 10 5.02 10 4 10 C4 9.01 4 8.02 4 7 C3.01 7 2.02 7 1 7 C-0.32 7 -1.64 7 -3 7 C-2.67 6.34 -2.34 5.68 -2 5 C-1.34 5 -0.68 5 0 5 C0 4.34 0 3.68 0 3 C0.66 3 1.32 3 2 3 C2 2.34 2 1.68 2 1 C1.34 0.67 0.68 0.34 0 0 Z " fill="#F3AFB8" transform="translate(60,58)"/>
<path d="M0 0 C0 3.63 0 7.26 0 11 C-2.31 11 -4.62 11 -7 11 C-5.68 10.67 -4.36 10.34 -3 10 C-3 9.34 -3 8.68 -3 8 C-4.11375 8.020625 -5.2275 8.04125 -6.375 8.0625 C-10 8 -10 8 -12 7 C-12.66 7.33 -13.32 7.66 -14 8 C-14 8.66 -14 9.32 -14 10 C-18.29 10.33 -22.58 10.66 -27 11 C-27 10.34 -27 9.68 -27 9 C-25.35 8.67 -23.7 8.34 -22 8 C-26.96073422 6.67713754 -31.91111512 6.91106803 -37 7 C-36.505 8.485 -36.505 8.485 -36 10 C-40.75 11.125 -40.75 11.125 -43 10 C-43 10.66 -43 11.32 -43 12 C-47.29 11.67 -51.58 11.34 -56 11 C-55.67 10.01 -55.34 9.02 -55 8 C-52.03 7.34 -49.06 6.68 -46 6 C-55.9 6.495 -55.9 6.495 -66 7 C-63.69 7.33 -61.38 7.66 -59 8 C-59 8.33 -59 8.66 -59 9 C-61.52067313 9.16945702 -64.04149384 9.33563484 -66.5625 9.5 C-67.26697266 9.54769531 -67.97144531 9.59539062 -68.69726562 9.64453125 C-73.14260135 9.9313271 -77.54544659 10.04682842 -82 10 C-82 8.68 -82 7.36 -82 6 C-81.07316406 5.87882813 -80.14632812 5.75765625 -79.19140625 5.6328125 C-77.99386719 5.46523437 -76.79632813 5.29765625 -75.5625 5.125 C-73.77005859 4.88136719 -73.77005859 4.88136719 -71.94140625 4.6328125 C-70.97074219 4.42398438 -70.00007813 4.21515625 -69 4 C-68.67 3.34 -68.34 2.68 -68 2 C-67.39671875 2.08378906 -66.7934375 2.16757813 -66.171875 2.25390625 C-64.97304687 2.40666016 -64.97304687 2.40666016 -63.75 2.5625 C-62.96109375 2.66691406 -62.1721875 2.77132812 -61.359375 2.87890625 C-58.99467126 3.00027349 -57.2488963 2.69633257 -55 2 C-55 2.66 -55 3.32 -55 4 C-54.34 3.67 -53.68 3.34 -53 3 C-50.79691954 2.85693804 -48.58985384 2.77351096 -46.3828125 2.71875 C-45.72924774 2.70034058 -45.07568298 2.68193115 -44.40231323 2.66296387 C-42.30996737 2.60419063 -40.21753888 2.55141255 -38.125 2.5 C-35.37743926 2.43215117 -32.63012567 2.35840962 -29.8828125 2.28125 C-28.65965332 2.25095703 -27.43649414 2.22066406 -26.17626953 2.18945312 C-23.58801858 2.03507321 -21.46969495 1.70820573 -19 1 C-17.58465222 0.93543121 -16.16662311 0.91388961 -14.75 0.9375 C-12.89375 0.9684375 -12.89375 0.9684375 -11 1 C-11 1.66 -11 2.32 -11 3 C-10.01 2.34 -9.02 1.68 -8 1 C-5.2133692 0.3033423 -2.88120712 0 0 0 Z " fill="#FBD5CE" transform="translate(187,125)"/>
<path d="M0 0 C0.33 0.33 0.66 0.66 1 1 C4.40035333 1.02635933 7.78696641 0.97048663 11.18554688 0.87304688 C13.12392963 0.84317153 15.06324025 0.91525384 17 1 C19 3 19 3 19 7 C13.06390334 7.89316269 7.93024803 7.97040422 2 7 C2 6.34 2 5.68 2 5 C1.34 5 0.68 5 0 5 C0.33 5.66 0.66 6.32 1 7 C1.039992 8.99960012 1.04346799 11.00047242 1 13 C0.30132812 13.06058594 -0.39734375 13.12117188 -1.1171875 13.18359375 C-2.02726562 13.26738281 -2.93734375 13.35117188 -3.875 13.4375 C-4.77992188 13.51871094 -5.68484375 13.59992188 -6.6171875 13.68359375 C-9.01110861 13.86989285 -9.01110861 13.86989285 -11 15 C-12.80770701 15.22914596 -14.62167175 15.41057811 -16.4375 15.5625 C-17.40558594 15.64628906 -18.37367188 15.73007813 -19.37109375 15.81640625 C-21.24383234 15.94719186 -23.12270016 16 -25 16 C-25.66 15.34 -26.32 14.68 -27 14 C-26.625 11.875 -26.625 11.875 -26 10 C-26.66 9.67 -27.32 9.34 -28 9 C-27.67 8.01 -27.34 7.02 -27 6 C-24.36 6 -21.72 6 -19 6 C-19 6.99 -19 7.98 -19 9 C-19.99 9 -20.98 9 -22 9 C-22 9.99 -22 10.98 -22 12 C-21.43152344 11.7834375 -20.86304688 11.566875 -20.27734375 11.34375 C-15.2757781 9.54018042 -11.31037964 8.6610396 -6 9 C-6 8.01 -6 7.02 -6 6 C-8.97 5.505 -8.97 5.505 -12 5 C-11.6875 3.0625 -11.6875 3.0625 -11 1 C-7.11651516 -0.29449495 -4.09302664 -0.13203312 0 0 Z " fill="#F09CAD" transform="translate(168,79)"/>
<path d="M0 0 C2.64 0 5.28 0 8 0 C8.495 0.99 8.495 0.99 9 2 C11.52733235 2.65555119 11.52733235 2.65555119 14 3 C14 2.34 14 1.68 14 1 C14.66 1 15.32 1 16 1 C16 1.99 16 2.98 16 4 C19.63 4 23.26 4 27 4 C27 6.31 27 8.62 27 11 C22.43856763 11.25527569 17.8760941 11.4746667 13.3125 11.6875 C11.37213867 11.79674805 11.37213867 11.79674805 9.39257812 11.90820312 C7.52182617 11.99038086 7.52182617 11.99038086 5.61328125 12.07421875 C4.46641846 12.13182373 3.31955566 12.18942871 2.13793945 12.2487793 C-1.39278949 11.96885922 -3.21824908 11.16011242 -6 9 C-6 8.34 -6 7.68 -6 7 C-6.99 7.495 -6.99 7.495 -8 8 C-9.59447464 8.08400529 -11.19240545 8.10727467 -12.7890625 8.09765625 C-13.73007813 8.09443359 -14.67109375 8.09121094 -15.640625 8.08789062 C-16.62546875 8.07951172 -17.6103125 8.07113281 -18.625 8.0625 C-20.11386719 8.05573242 -20.11386719 8.05573242 -21.6328125 8.04882812 C-24.0886016 8.03702145 -26.54427104 8.020554 -29 8 C-28.67 7.34 -28.34 6.68 -28 6 C-21.53145982 3.85265674 -14.62237803 3.81959354 -7.875 3.8125 C-7.11638672 3.81169434 -6.35777344 3.81088867 -5.57617188 3.81005859 C-0.13423459 3.86576541 -0.13423459 3.86576541 1 5 C2.66617115 5.04063832 4.33388095 5.042721 6 5 C6 3.68 6 2.36 6 1 C4.02 1 2.04 1 0 1 C0 0.67 0 0.34 0 0 Z " fill="#E9F1E5" transform="translate(160,223)"/>
<path d="M0 0 C1.3125 2.0625 1.3125 2.0625 2 4 C2.598125 3.649375 3.19625 3.29875 3.8125 2.9375 C6 2 6 2 9 3 C9.99 4.485 9.99 4.485 11 6 C8.36 6 5.72 6 3 6 C3 6.99 3 7.98 3 9 C4.32 9.33 5.64 9.66 7 10 C3.04 10 -0.92 10 -5 10 C-5 10.66 -5 11.32 -5 12 C-2.36 12 0.28 12 3 12 C2.67 12.66 2.34 13.32 2 14 C-0.5216376 13.88496731 -3.0418119 13.75825223 -5.5625 13.625 C-6.61920898 13.57859375 -6.61920898 13.57859375 -7.69726562 13.53125 C-12.41295741 13.27047442 -16.50385496 12.45341877 -21 11 C-21 10.34 -21 9.68 -21 9 C-20.01 9 -19.02 9 -18 9 C-18 8.34 -18 7.68 -18 7 C-18.99 6.67 -19.98 6.34 -21 6 C-20.6875 4.125 -20.6875 4.125 -20 2 C-16.67557501 -0.21628333 -15.04183681 -0.38958598 -11.125 -0.6875 C-10.09632812 -0.77386719 -9.06765625 -0.86023437 -8.0078125 -0.94921875 C-5.12081123 -0.99796033 -2.76643362 -0.81568025 0 0 Z " fill="#DDA4AB" transform="translate(45,54)"/>
<path d="M0 0 C0.99 0.33 1.98 0.66 3 1 C4.93561978 1.09496547 6.87455816 1.12987533 8.8125 1.125 C9.82957031 1.12757812 10.84664062 1.13015625 11.89453125 1.1328125 C15.50186529 1.04184948 15.50186529 1.04184948 21 0 C21 4.29 21 8.58 21 13 C16.71 13 12.42 13 8 13 C8 12.01 8 11.02 8 10 C8.66 9.67 9.32 9.34 10 9 C7.36 8.67 4.72 8.34 2 8 C1.67 8.66 1.34 9.32 1 10 C-5.99390943 11.14654253 -12.92748801 11.10770323 -20 11 C-20 10.01 -20 9.02 -20 8 C-19.40832031 7.95101562 -18.81664062 7.90203125 -18.20703125 7.8515625 C-13.76204462 7.4309928 -10.10525577 6.83656179 -6 5 C-3.67251306 4.31320058 -1.34013344 3.64238957 1 3 C0.34 2.34 -0.32 1.68 -1 1 C-0.67 0.67 -0.34 0.34 0 0 Z " fill="#F3A8B1" transform="translate(166,64)"/>
<path d="M0 0 C2.31 0 4.62 0 7 0 C7.2475 0.804375 7.495 1.60875 7.75 2.4375 C8.7241691 5.13654257 8.7241691 5.13654257 11 5.875 C13.0732281 6.17260908 13.0732281 6.17260908 15 5 C15 3.68 15 2.36 15 1 C15.66 1 16.32 1 17 1 C17 1.66 17 2.32 17 3 C17.53367187 2.855625 18.06734375 2.71125 18.6171875 2.5625 C24.50228763 1.09631589 29.95009776 0.77265503 36 1 C36 1.66 36 2.32 36 3 C36.66 3 37.32 3 38 3 C38 3.99 38 4.98 38 6 C38.66 6 39.32 6 40 6 C40 7.32 40 8.64 40 10 C38.33388095 10.042721 36.66617115 10.04063832 35 10 C34.505 9.505 34.505 9.505 34 9 C27.25244923 7.97071259 20.50827485 7.25785905 13.875 9.0625 C9.08326342 10.22179111 9.08326342 10.22179111 6 9 C5.34 8.01 4.68 7.02 4 6 C1.43717258 5.27034634 1.43717258 5.27034634 -1 5 C-0.67 3.35 -0.34 1.7 0 0 Z " fill="#F2A8A0" transform="translate(14,72)"/>
<path d="M0 0 C3.80926859 0.26347144 7.62232301 0.41108439 11.4375 0.5625 C12.45521484 0.60568359 13.47292969 0.64886719 14.52148438 0.69335938 C17.01421028 0.79868582 19.50702338 0.90081672 22 1 C22 2.32 22 3.64 22 5 C20.02 5.33 18.04 5.66 16 6 C16 5.34 16 4.68 16 4 C15.12263184 4.00785522 15.12263184 4.00785522 14.22753906 4.01586914 C11.56837037 4.03670158 8.90921889 4.04968007 6.25 4.0625 C5.32960938 4.07087891 4.40921875 4.07925781 3.4609375 4.08789062 C2.12675781 4.09272461 2.12675781 4.09272461 0.765625 4.09765625 C-0.05131836 4.10289307 -0.86826172 4.10812988 -1.70996094 4.11352539 C-4 4 -4 4 -5.87109375 3.48632812 C-8.90047609 2.79429491 -11.72632864 3.00105201 -14.828125 3.12109375 C-15.49479187 3.14470474 -16.16145874 3.16831573 -16.84832764 3.19264221 C-18.98245551 3.26890543 -21.11619725 3.35266031 -23.25 3.4375 C-26.02591259 3.5441412 -28.80193223 3.64701376 -31.578125 3.74609375 C-32.26362427 3.77069672 -32.94912354 3.79529968 -33.65539551 3.82064819 C-41.10352585 4.06843314 -48.54877545 4.05061634 -56 4 C-56 3.34 -56 2.68 -56 2 C-58.64 2 -61.28 2 -64 2 C-64 1.67 -64 1.34 -64 1 C-63.41863785 0.98969254 -62.8372757 0.97938507 -62.23829651 0.96876526 C-56.15428834 0.86007521 -50.07040978 0.74553334 -43.98657227 0.62768555 C-41.71999845 0.5845358 -39.4533963 0.54284784 -37.18676758 0.50268555 C-33.91739381 0.4444963 -30.6481601 0.3809453 -27.37890625 0.31640625 C-26.37541641 0.29969376 -25.37192657 0.28298126 -24.33802795 0.26576233 C-19.13772166 0.15775494 -14.05141877 -0.12848045 -8.89562988 -0.83166504 C-5.85793763 -1.10141696 -2.99868472 -0.49069386 0 0 Z " fill="#C9E0D0" transform="translate(144,223)"/>
<path d="M0 0 C0.97582031 0.00902344 1.95164063 0.01804688 2.95703125 0.02734375 C4.06111328 0.04474609 4.06111328 0.04474609 5.1875 0.0625 C5.1875 0.7225 5.1875 1.3825 5.1875 2.0625 C7.8275 2.0625 10.4675 2.0625 13.1875 2.0625 C13.1875 2.7225 13.1875 3.3825 13.1875 4.0625 C10.5475 4.0625 7.9075 4.0625 5.1875 4.0625 C5.1875 4.7225 5.1875 5.3825 5.1875 6.0625 C-8.6725 6.0625 -22.5325 6.0625 -36.8125 6.0625 C-36.8125 5.4025 -36.8125 4.7425 -36.8125 4.0625 C-36.1525 4.0625 -35.4925 4.0625 -34.8125 4.0625 C-34.4825 3.0725 -34.1525 2.0825 -33.8125 1.0625 C-32.8066687 1.07035522 -32.8066687 1.07035522 -31.78051758 1.07836914 C-28.728688 1.09921605 -25.67687344 1.11218469 -22.625 1.125 C-21.56990234 1.13337891 -20.51480469 1.14175781 -19.42773438 1.15039062 C-18.40615234 1.15361328 -17.38457031 1.15683594 -16.33203125 1.16015625 C-15.39464111 1.16539307 -14.45725098 1.17062988 -13.49145508 1.17602539 C-8.90305671 0.98158401 -4.63886121 -0.05588989 0 0 Z " fill="#EBF1E4" transform="translate(98.8125,230.9375)"/>
<path d="M0 0 C18.48 0 36.96 0 56 0 C56 0.33 56 0.66 56 1 C48.08 1.495 48.08 1.495 40 2 C40 2.66 40 3.32 40 4 C42.64 4 45.28 4 48 4 C48 4.33 48 4.66 48 5 C42.71319462 5.8741411 37.60496541 6.18282726 32.25 6.1875 C31.49589844 6.19974609 30.74179688 6.21199219 29.96484375 6.22460938 C26.10826318 6.23488446 24.28296616 6.18864411 21 4 C21.99 4 22.98 4 24 4 C24 3.34 24 2.68 24 2 C16.08 2 8.16 2 0 2 C0 1.34 0 0.68 0 0 Z " fill="#C1D7C4" transform="translate(48,263)"/>
<path d="M0 0 C0.33 0.66 0.66 1.32 1 2 C2.65 2 4.3 2 6 2 C4.68 2.33 3.36 2.66 2 3 C2.33 4.65 2.66 6.3 3 8 C1.68 8.33 0.36 8.66 -1 9 C-1.33 8.01 -1.66 7.02 -2 6 C-1.67 5.34 -1.34 4.68 -1 4 C-5.95 4 -10.9 4 -16 4 C-16 4.66 -16 5.32 -16 6 C-13.36 6 -10.72 6 -8 6 C-8 6.99 -8 7.98 -8 9 C-6.68 9.66 -5.36 10.32 -4 11 C-7.96 11 -11.92 11 -16 11 C-16 10.01 -16 9.02 -16 8 C-18.31 8.33 -20.62 8.66 -23 9 C-22.34 8.67 -21.68 8.34 -21 8 C-21 7.34 -21 6.68 -21 6 C-20.34 6 -19.68 6 -19 6 C-19 5.34 -19 4.68 -19 4 C-20.98 3.34 -22.96 2.68 -25 2 C-23 0 -23 0 -19.62890625 -0.16015625 C-18.27323533 -0.13753956 -16.91770669 -0.10457133 -15.5625 -0.0625 C-10.18645597 0.07482563 -5.13125513 -1.48536333 0 0 Z " fill="#FABABD" transform="translate(136,79)"/>
<path d="M0 0 C0.66 0 1.32 0 2 0 C2 0.66 2 1.32 2 2 C7.61 2 13.22 2 19 2 C19 4.97 19 7.94 19 11 C18.01 11 17.02 11 16 11 C16 10.01 16 9.02 16 8 C15.34 8 14.68 8 14 8 C14 8.99 14 9.98 14 11 C11.69 11.33 9.38 11.66 7 12 C6.67 11.34 6.34 10.68 6 10 C2.97065509 9.34227572 2.97065509 9.34227572 0 9 C0 6.03 0 3.06 0 0 Z " fill="#FAB1BB" transform="translate(168,84)"/>
<path d="M0 0 C3.3 0 6.6 0 10 0 C10 1.32 10 2.64 10 4 C11.98 4 13.96 4 16 4 C16 4.66 16 5.32 16 6 C18.64 6 21.28 6 24 6 C24 6.66 24 7.32 24 8 C22.77023438 8.07347656 22.77023438 8.07347656 21.515625 8.1484375 C20.43796875 8.22320312 19.3603125 8.29796875 18.25 8.375 C16.64898438 8.47941406 16.64898438 8.47941406 15.015625 8.5859375 C12.14238693 8.98044946 10.52594997 9.69492585 8 11 C5.859375 11.1953125 5.859375 11.1953125 3.75 11.125 C1.89375 11.063125 1.89375 11.063125 0 11 C0 7.37 0 3.74 0 0 Z " fill="#F1BFB9" transform="translate(0,85)"/>
<path d="M0 0 C0.66 0 1.32 0 2 0 C2.33 0.99 2.66 1.98 3 3 C4.65 3 6.3 3 8 3 C8 2.34 8 1.68 8 1 C9.875 1.1875 9.875 1.1875 12 2 C12.309375 2.825 12.61875 3.65 12.9375 4.5 C13.288125 5.325 13.63875 6.15 14 7 C16.48400985 7.66347631 16.48400985 7.66347631 19 8 C19.99 9.485 19.99 9.485 21 11 C23.05003955 12.19232613 23.05003955 12.19232613 25 13 C24.67 13.66 24.34 14.32 24 15 C21.1875 15.1875 21.1875 15.1875 18 15 C16.97895449 14.02149805 15.9793879 13.02019573 15 12 C11.89160979 11.2730774 11.89160979 11.2730774 9 11 C8.67 9.68 8.34 8.36 8 7 C5.36 7 2.72 7 0 7 C0 4.69 0 2.38 0 0 Z M5 9 C5.99 9 6.98 9 8 9 C7.67 9.99 7.34 10.98 7 12 C6.34 12 5.68 12 5 12 C5 11.01 5 10.02 5 9 Z " fill="#FDBFB6" transform="translate(0,70)"/>
<path d="M0 0 C13.53 0 27.06 0 41 0 C40.67 0.66 40.34 1.32 40 2 C38.68 2 37.36 2 36 2 C36 2.66 36 3.32 36 4 C28.08 4 20.16 4 12 4 C12.66 3.34 13.32 2.68 14 2 C12.35 1.67 10.7 1.34 9 1 C9 1.99 9 2.98 9 4 C6.03 4 3.06 4 0 4 C0 2.66666667 0 1.33333333 0 0 Z " fill="#ECF1E5" transform="translate(144,236)"/>
<path d="M0 0 C0.33 0.66 0.66 1.32 1 2 C5.29 2 9.58 2 14 2 C13 7 13 7 11.109375 8.36328125 C3.29855778 11.50571268 3.29855778 11.50571268 -1 11 C-1.99 11 -2.98 11 -4 11 C-4.6875 9.3125 -4.6875 9.3125 -5 7 C-3.6875 4.25 -3.6875 4.25 -2 2 C-1.34 2 -0.68 2 0 2 C0 1.34 0 0.68 0 0 Z " fill="#F2B4BB" transform="translate(74,62)"/>
<path d="M0 0 C0.66 0.33 1.32 0.66 2 1 C2.59772099 3.9829661 2.74337815 6.96330805 3 10 C0.03 9.67 -2.94 9.34 -6 9 C-5.67 9.99 -5.34 10.98 -5 12 C-6.32 11.67 -7.64 11.34 -9 11 C-8.67 10.34 -8.34 9.68 -8 9 C-10.97 8.505 -10.97 8.505 -14 8 C-13.67 7.34 -13.34 6.68 -13 6 C-11.07421875 5.5078125 -11.07421875 5.5078125 -8.6875 5.125 C-4.66940278 4.33161775 -2.56545664 3.34624778 0 0 Z M-18 6 C-18.99 6.33 -19.98 6.66 -21 7 C-18.69 7.33 -16.38 7.66 -14 8 C-14 8.33 -14 8.66 -14 9 C-19.28 9.66 -24.56 10.32 -30 11 C-30 9.68 -30 8.36 -30 7 C-21.96428571 4.72321429 -21.96428571 4.72321429 -18 6 Z " fill="#F2C1BE" transform="translate(30,22)"/>
<path d="M0 0 C2.24973447 -0.054138 4.49984383 -0.09285491 6.75 -0.125 C8.00296875 -0.14820312 9.2559375 -0.17140625 10.546875 -0.1953125 C13.72820492 -0.01537302 15.36521896 0.31001418 18 2 C18 3.32 18 4.64 18 6 C19.65 6 21.3 6 23 6 C23 6.33 23 6.66 23 7 C18.54670429 8.10892344 14.18467698 8.14891439 9.625 8.125 C8.89539062 8.12886719 8.16578125 8.13273437 7.4140625 8.13671875 C2.842556 8.12855535 -1.49000287 7.7496829 -6 7 C-6 6.67 -6 6.34 -6 6 C-3.36 5.67 -0.72 5.34 2 5 C2.33 4.01 2.66 3.02 3 2 C2.01 1.34 1.02 0.68 0 0 Z " fill="#F7B8B1" transform="translate(30,86)"/>
<path d="M0 0 C2.475 0.99 2.475 0.99 5 2 C3.74458443 4.51083114 2.49936512 4.87125446 0 6 C1.29035156 5.98839844 2.58070312 5.97679688 3.91015625 5.96484375 C5.62760271 5.9554588 7.34505075 5.94635936 9.0625 5.9375 C9.91005859 5.92912109 10.75761719 5.92074219 11.63085938 5.91210938 C16.5361722 5.89316994 21.16444755 6.16673655 26 7 C24.734375 8.515625 24.734375 8.515625 23 10 C19.25 9.75 19.25 9.75 16.89453125 9.39453125 C13.25215073 8.89806643 9.60422311 8.66396899 5.9375 8.4375 C4.62652344 8.35371094 3.31554687 8.26992187 1.96484375 8.18359375 C0.49724609 8.09271484 0.49724609 8.09271484 -1 8 C-1.66 9.32 -2.32 10.64 -3 12 C-3.99 12 -4.98 12 -6 12 C-6 10.68 -6 9.36 -6 8 C-7.32 7.67 -8.64 7.34 -10 7 C-10 6.01 -10 5.02 -10 4 C-7.36 4 -4.72 4 -2 4 C-2 3.34 -2 2.68 -2 2 C-1.34 2 -0.68 2 0 2 C0 1.34 0 0.68 0 0 Z " fill="#F1A7A4" transform="translate(54,80)"/>
<path d="M0 0 C0 0.66 0 1.32 0 2 C2.31 2 4.62 2 7 2 C7 2.66 7 3.32 7 4 C9.475 4.495 9.475 4.495 12 5 C12 5.33 12 5.66 12 6 C1.77 6 -8.46 6 -19 6 C-19 4.35 -19 2.7 -19 1 C-16.39590255 0.83218705 -13.7917318 0.66570349 -11.1875 0.5 C-10.08051758 0.42845703 -10.08051758 0.42845703 -8.95117188 0.35546875 C-5.96175412 0.16609387 -2.99625426 0 0 0 Z " fill="#F6F5EA" transform="translate(51,233)"/>
<path d="M0 0 C1.32 0 2.64 0 4 0 C4 0.66 4 1.32 4 2 C10.69675136 3.03026944 17.2314676 3.10152799 24 3 C23.67 3.66 23.34 4.32 23 5 C22.01 5 21.02 5 20 5 C20 5.66 20 6.32 20 7 C12.98194143 8.10087193 6.09434233 8.09733092 -1 8 C-1 7.34 -1 6.68 -1 6 C-3.31 5.67 -5.62 5.34 -8 5 C-8 4.34 -8 3.68 -8 3 C-5.36 3 -2.72 3 0 3 C0 2.01 0 1.02 0 0 Z " fill="#E4AAB3" transform="translate(84,45)"/>
<path d="M0 0 C2.64 0 5.28 0 8 0 C8.33 0.66 8.66 1.32 9 2 C11.52733235 2.65555119 11.52733235 2.65555119 14 3 C14 2.34 14 1.68 14 1 C14.66 1 15.32 1 16 1 C16 1.99 16 2.98 16 4 C19.63 4 23.26 4 27 4 C27 5.98 27 7.96 27 10 C22.05 10 17.1 10 12 10 C12 9.34 12 8.68 12 8 C12.99 7.67 13.98 7.34 15 7 C10.545 6.01 10.545 6.01 6 5 C6 3.68 6 2.36 6 1 C4.02 1 2.04 1 0 1 C0 0.67 0 0.34 0 0 Z " fill="#D6E7DB" transform="translate(160,223)"/>
<path d="M0 0 C1.41702513 0.14230808 2.8336096 0.28900746 4.25 0.4375 C5.43335938 0.55931641 5.43335938 0.55931641 6.640625 0.68359375 C8.82860883 0.97701542 10.86170981 1.46542745 13 2 C14.58025005 2.21192095 16.16398461 2.39923371 17.75 2.5625 C18.54921875 2.64628906 19.3484375 2.73007813 20.171875 2.81640625 C21.07679687 2.90728516 21.07679687 2.90728516 22 3 C22.33 2.34 22.66 1.68 23 1 C23.495 1.515625 23.99 2.03125 24.5 2.5625 C27.55321887 4.31810085 29.34183275 3.90413863 32.73046875 3.33203125 C39.30746458 2.36982016 47.56763398 2.18396563 54 4 C54.66 4.99 55.32 5.98 56 7 C55.01 7 54.02 7 53 7 C53 6.34 53 5.68 53 5 C50.89551062 5.14109986 48.7914123 5.28804175 46.6875 5.4375 C44.92986328 5.55931641 44.92986328 5.55931641 43.13671875 5.68359375 C39.97409042 5.8867371 39.97409042 5.8867371 37 7 C34.77181559 7.06937062 32.54165476 7.08457084 30.3125 7.0625 C28.54326172 7.04896484 28.54326172 7.04896484 26.73828125 7.03515625 C25.83464844 7.02355469 24.93101563 7.01195312 24 7 C24 6.34 24 5.68 24 5 C23.09636719 5.01160156 22.19273438 5.02320312 21.26171875 5.03515625 C20.08222656 5.04417969 18.90273438 5.05320312 17.6875 5.0625 C16.51574219 5.07410156 15.34398437 5.08570312 14.13671875 5.09765625 C11 5 11 5 8 4 C8 3.34 8 2.68 8 2 C5.69 2 3.38 2 1 2 C0.67 1.34 0.34 0.68 0 0 Z " fill="#FDE3D1" transform="translate(3,121)"/>
<path d="M0 0 C0.66 0 1.32 0 2 0 C2 0.99 2 1.98 2 3 C2.99 3 3.98 3 5 3 C5 4.98 5 6.96 5 9 C2.03 9 -0.94 9 -4 9 C-4 8.67 -4 8.34 -4 8 C-6.97 7.505 -6.97 7.505 -10 7 C-10 7.66 -10 8.32 -10 9 C-11.32 9 -12.64 9 -14 9 C-14 8.34 -14 7.68 -14 7 C-14.99 6.67 -15.98 6.34 -17 6 C-17 5.67 -17 5.34 -17 5 C-13.535 4.505 -13.535 4.505 -10 4 C-12.31 3.67 -14.62 3.34 -17 3 C-17 2.67 -17 2.34 -17 2 C-15.54364629 1.77825067 -14.08477044 1.57301302 -12.625 1.375 C-11.40683594 1.20097656 -11.40683594 1.20097656 -10.1640625 1.0234375 C-9.44992188 1.01570313 -8.73578125 1.00796875 -8 1 C-7.34 1.66 -6.68 2.32 -6 3 C-2.91652174 3.16681109 -2.91652174 3.16681109 0 3 C0 2.01 0 1.02 0 0 Z " fill="#EF9CAA" transform="translate(182,92)"/>
<path d="M0 0 C0.66 0 1.32 0 2 0 C2 0.66 2 1.32 2 2 C2.53367187 1.855625 3.06734375 1.71125 3.6171875 1.5625 C9.50228763 0.09631589 14.95009776 -0.22734497 21 0 C21 0.66 21 1.32 21 2 C21.66 2 22.32 2 23 2 C23 2.99 23 3.98 23 5 C23.66 5 24.32 5 25 5 C25 6.32 25 7.64 25 9 C23.35 9 21.7 9 20 9 C19.67 7.68 19.34 6.36 19 5 C18.01 5.33 17.02 5.66 16 6 C16 5.34 16 4.68 16 4 C15.01 4.33 14.02 4.66 13 5 C10.42734182 5.07029121 7.88358569 5.09370832 5.3125 5.0625 C4.61060547 5.05798828 3.90871094 5.05347656 3.18554688 5.04882812 C1.45699462 5.03706927 -0.27151365 5.01913454 -2 5 C-1.34 4.67 -0.68 4.34 0 4 C0 2.68 0 1.36 0 0 Z " fill="#C1899A" transform="translate(29,73)"/>
<path d="M0 0 C2 2 2 2 2 6 C-3.93609666 6.89316269 -9.06975197 6.97040422 -15 6 C-15 5.34 -15 4.68 -15 4 C-17.31 4 -19.62 4 -22 4 C-15.75915764 -0.16056158 -7.3682289 -0.94714474 0 0 Z " fill="#EC97AE" transform="translate(185,80)"/>
<path d="M0 0 C0 0.99 0 1.98 0 3 C0.99 2.67 1.98 2.34 3 2 C3.33 1.34 3.66 0.68 4 0 C12.57142857 -0.14285714 12.57142857 -0.14285714 16 1 C16 1.66 16 2.32 16 3 C13.89679937 3.50404808 11.79240209 4.00310508 9.6875 4.5 C7.92986328 4.91765625 7.92986328 4.91765625 6.13671875 5.34375 C3 6 3 6 0 6 C0 6.66 0 7.32 0 8 C-2.31 8.33 -4.62 8.66 -7 9 C-6.67 8.01 -6.34 7.02 -6 6 C-6.66 5.34 -7.32 4.68 -8 4 C-7.34 4 -6.68 4 -6 4 C-6 3.34 -6 2.68 -6 2 C-6.66 2 -7.32 2 -8 2 C-8 1.34 -8 0.68 -8 0 C-4.94736336 -0.98120464 -3.05263664 -0.98120464 0 0 Z " fill="#F3BFC3" transform="translate(168,40)"/>
<path d="M0 0 C14.37995569 0.02833489 14.37995569 0.02833489 19.90234375 1.1328125 C20.23234375 1.7928125 20.56234375 2.4528125 20.90234375 3.1328125 C22.22234375 3.7928125 23.54234375 4.4528125 24.90234375 5.1328125 C17.97234375 5.1328125 11.04234375 5.1328125 3.90234375 5.1328125 C3.90234375 4.4728125 3.90234375 3.8128125 3.90234375 3.1328125 C-0.05765625 3.1328125 -4.01765625 3.1328125 -8.09765625 3.1328125 C-6.77765625 2.4728125 -5.45765625 1.8128125 -4.09765625 1.1328125 C-3.09765625 0.1328125 -3.09765625 0.1328125 0 0 Z " fill="#EFF5E9" transform="translate(28.09765625,245.8671875)"/>
<path d="M0 0 C1.6260287 0.06000106 3.25101549 0.1487885 4.875 0.25 C6.23238281 0.31960937 6.23238281 0.31960937 7.6171875 0.390625 C10 1 10 1 11.3203125 3.046875 C11.54460937 3.69140625 11.76890625 4.3359375 12 5 C8.71023192 6.09658936 7.28696233 5.79953138 4 5 C4 5.99 4 6.98 4 8 C3.01 8.495 3.01 8.495 2 9 C2.66 9.33 3.32 9.66 4 10 C4 10.66 4 11.32 4 12 C2.35 12 0.7 12 -1 12 C-0.67 10.68 -0.34 9.36 0 8 C-2.97 7.505 -2.97 7.505 -6 7 C-6 5.68 -6 4.36 -6 3 C-4.35 3 -2.7 3 -1 3 C-0.67 2.01 -0.34 1.02 0 0 Z " fill="#F2A6AD" transform="translate(126,90)"/>
<path d="M0 0 C2.64 0 5.28 0 8 0 C8 0.99 8 1.98 8 3 C7.01 3 6.02 3 5 3 C5 3.99 5 4.98 5 6 C6.134375 5.67 7.26875 5.34 8.4375 5 C12.99795849 3.84152933 17.32161006 3.80506709 22 4 C22 3.34 22 2.68 22 2 C22.99 2.33 23.98 2.66 25 3 C24.67 3.66 24.34 4.32 24 5 C21.375 5.74609375 21.375 5.74609375 18 6.4375 C12.49648572 7.62679305 7.30108874 9.1131718 2 11 C0 8 0 8 0.375 5.8125 C0.58125 5.214375 0.7875 4.61625 1 4 C0.34 3.67 -0.32 3.34 -1 3 C-0.67 2.01 -0.34 1.02 0 0 Z " fill="#ED9CA9" transform="translate(141,85)"/>
<path d="M0 0 C0 3.63 0 7.26 0 11 C-5 10 -5 10 -8 8 C-7.67 7.01 -7.34 6.02 -7 5 C-9.31 5 -11.62 5 -14 5 C-14 4.34 -14 3.68 -14 3 C-14.66 2.67 -15.32 2.34 -16 2 C-13.89627599 1.66388432 -11.79200343 1.33120054 -9.6875 1 C-8.51574219 0.814375 -7.34398437 0.62875 -6.13671875 0.4375 C-3 0 -3 0 0 0 Z " fill="#F7AAB8" transform="translate(187,64)"/>
<path d="M0 0 C0.99 0 1.98 0 3 0 C3.33 0.99 3.66 1.98 4 3 C4.66 3.33 5.32 3.66 6 4 C6 4.66 6 5.32 6 6 C5.01 6 4.02 6 3 6 C3 6.66 3 7.32 3 8 C4.98 8 6.96 8 9 8 C9 8.33 9 8.66 9 9 C7.02 9 5.04 9 3 9 C4.24976756 12.65316671 4.67098753 13.78065836 8 16 C7.67 16.66 7.34 17.32 7 18 C5.02 17.34 3.04 16.68 1 16 C1 14.68 1 13.36 1 12 C0.01 11.67 -0.98 11.34 -2 11 C-2.91893304 7.40780721 -3.25145386 5.57834388 -1.75 2.125 C-1.1725 1.42375 -0.595 0.7225 0 0 Z " fill="#F1A9A3" transform="translate(21,57)"/>
<path d="M0 0 C0.66 2.64 1.32 5.28 2 8 C-4.06815522 9.22899346 -9.79895188 10.27560214 -16 10 C-15.67 9.01 -15.34 8.02 -15 7 C-10.545 6.505 -10.545 6.505 -6 6 C-5.67 5.01 -5.34 4.02 -5 3 C-3.68 3.66 -2.36 4.32 -1 5 C-1 3.68 -1 2.36 -1 1 C-9.415 1.495 -9.415 1.495 -18 2 C-17.67 1.34 -17.34 0.68 -17 0 C-14.453125 -0.44921875 -14.453125 -0.44921875 -11.25 -0.6875 C-10.20328125 -0.77386719 -9.1565625 -0.86023437 -8.078125 -0.94921875 C-5.19508148 -0.99678165 -2.78929511 -0.68699305 0 0 Z " fill="#E0B2BB" transform="translate(45,54)"/>
<path d="M0 0 C2.64 0 5.28 0 8 0 C10.21538462 6.4 10.21538462 6.4 9.125 9.4375 C8.75375 9.953125 8.3825 10.46875 8 11 C7.34 10.67 6.68 10.34 6 10 C6 9.34 6 8.68 6 8 C1.38 8 -3.24 8 -8 8 C-8 7.67 -8 7.34 -8 7 C-5.36 6.67 -2.72 6.34 0 6 C0 4.02 0 2.04 0 0 Z M-3 1 C0 2 0 2 0 2 Z " fill="#F9C2B7" transform="translate(8,56)"/>
<path d="M0 0 C1.98 0.495 1.98 0.495 4 1 C3.67 1.66 3.34 2.32 3 3 C4.65 3 6.3 3 8 3 C8 3.99 8 4.98 8 6 C10.64 6 13.28 6 16 6 C16 6.66 16 7.32 16 8 C13.69 8.33 11.38 8.66 9 9 C9 9.66 9 10.32 9 11 C6.36 11 3.72 11 1 11 C-1.42857143 3.57142857 -1.42857143 3.57142857 0 0 Z " fill="#E4F1E6" transform="translate(16,224)"/>
<path d="M0 0 C0.86625 0.13664062 1.7325 0.27328125 2.625 0.4140625 C5.93330622 0.91621612 7.38745395 1.11824452 10.625 0.0390625 C11.285 1.6890625 11.945 3.3390625 12.625 5.0390625 C10.69345515 6.97060735 7.3139823 6.25760259 4.75 6.2890625 C2.86667969 6.32773437 2.86667969 6.32773437 0.9453125 6.3671875 C-2.375 6.0390625 -2.375 6.0390625 -4.3203125 4.5234375 C-4.66835937 4.03359375 -5.01640625 3.54375 -5.375 3.0390625 C-3.614627 0.78068924 -2.93164165 0.04821779 0 0 Z " fill="#FBD8D8" transform="translate(148.375,31.9609375)"/>
<path d="M0 0 C2 2 2 2 3 5 C3.66 5.33 4.32 5.66 5 6 C5 7.32 5 8.64 5 10 C7.97 10.495 7.97 10.495 11 11 C11 12.32 11 13.64 11 15 C9.1875 15.6875 9.1875 15.6875 7 16 C5.25 14.8125 5.25 14.8125 4 13 C4 11.68 4 10.36 4 9 C0.56769552 9.26393501 0.56769552 9.26393501 -3 10 C-3.99 11.485 -3.99 11.485 -5 13 C-5 11.68 -5 10.36 -5 9 C-5.66 8.67 -6.32 8.34 -7 8 C-6.21625 7.79375 -5.4325 7.5875 -4.625 7.375 C-1.69083714 6.19323388 -1.69083714 6.19323388 -0.6875 2.875 C-0.460625 1.92625 -0.23375 0.9775 0 0 Z " fill="#FCB5AD" transform="translate(17,63)"/>
<path d="M0 0 C0.93457031 0.00322266 1.86914062 0.00644531 2.83203125 0.00976562 C3.80011719 0.01814453 4.76820313 0.02652344 5.765625 0.03515625 C6.74917969 0.03966797 7.73273438 0.04417969 8.74609375 0.04882812 C11.16933291 0.06059142 13.59244773 0.07702941 16.015625 0.09765625 C15.685625 0.75765625 15.355625 1.41765625 15.015625 2.09765625 C13.203125 2.4765625 13.203125 2.4765625 11.015625 2.66015625 C8.22630442 2.72431033 8.22630442 2.72431033 6.015625 4.09765625 C4.0377257 4.09765625 2.05967425 4.09434041 0.08203125 4.0625 C-2.12457703 4.03823559 -2.12457703 4.03823559 -4.796875 4.66015625 C-6.984375 5.09765625 -6.984375 5.09765625 -9.984375 4.09765625 C-9.654375 3.10765625 -9.324375 2.11765625 -8.984375 1.09765625 C-6.03030311 -0.0519275 -3.1407606 -0.01915098 0 0 Z " fill="#F0B4B5" transform="translate(145.984375,105.90234375)"/>
<path d="M0 0 C0 0.66 0 1.32 0 2 C0.928125 1.814375 1.85625 1.62875 2.8125 1.4375 C6 1 6 1 9 2 C9 2.66 9 3.32 9 4 C9.66 4 10.32 4 11 4 C11 4.66 11 5.32 11 6 C3.25 7.125 3.25 7.125 1 6 C1 5.34 1 4.68 1 4 C0.443125 4.515625 -0.11375 5.03125 -0.6875 5.5625 C-3 7 -3 7 -5.75 6.6875 C-6.4925 6.460625 -7.235 6.23375 -8 6 C-7.34 5.01 -6.68 4.02 -6 3 C-6.33 2.34 -6.66 1.68 -7 1 C-4.53721199 -0.231394 -2.7204945 -0.07159196 0 0 Z " fill="#F3C0C5" transform="translate(95,39)"/>
<path d="M0 0 C4.04745263 0.19584448 7.05131673 0.93895036 10.875 2.1875 C10.875 2.5175 10.875 2.8475 10.875 3.1875 C5.925 3.1875 0.975 3.1875 -4.125 3.1875 C-4.125 3.8475 -4.125 4.5075 -4.125 5.1875 C-1.485 5.1875 1.155 5.1875 3.875 5.1875 C3.875 5.5175 3.875 5.8475 3.875 6.1875 C-1.405 6.1875 -6.685 6.1875 -12.125 6.1875 C-12.125 4.5375 -12.125 2.8875 -12.125 1.1875 C-10.825625 1.208125 -9.52625 1.22875 -8.1875 1.25 C-6.83334367 1.27149454 -5.47743917 1.25898199 -4.125 1.1875 C-3.125 0.1875 -3.125 0.1875 0 0 Z " fill="#F0F4EA" transform="translate(12.125,238.8125)"/>
<path d="M0 0 C5.61 0 11.22 0 17 0 C17 1.32 17 2.64 17 4 C14.625 5.0625 14.625 5.0625 12 6 C11.34 5.67 10.68 5.34 10 5 C10 4.34 10 3.68 10 3 C6.7 3.33 3.4 3.66 0 4 C0 2.68 0 1.36 0 0 Z " fill="#F8D9D4" transform="translate(0,12)"/>
<path d="M0 0 C2 3 2 3 2 5 C-4.75 9 -4.75 9 -7 9 C-7.33 10.32 -7.66 11.64 -8 13 C-8 12.34 -8 11.68 -8 11 C-9.98 10.34 -11.96 9.68 -14 9 C-14 8.34 -14 7.68 -14 7 C-12.68 6.67 -11.36 6.34 -10 6 C-10 5.34 -10 4.68 -10 4 C-9.04287109 3.81824219 -9.04287109 3.81824219 -8.06640625 3.6328125 C-7.24011719 3.46523437 -6.41382812 3.29765625 -5.5625 3.125 C-4.73878906 2.96257812 -3.91507813 2.80015625 -3.06640625 2.6328125 C-2.38449219 2.42398438 -1.70257813 2.21515625 -1 2 C-0.67 1.34 -0.34 0.68 0 0 Z " fill="#FBB8BE" transform="translate(98,67)"/>
<path d="M0 0 C5.94 0 11.88 0 18 0 C18 0.99 18 1.98 18 3 C12.23918159 4.2982126 6.91260345 5.25706972 1 5 C0.67 5.99 0.34 6.98 0 8 C-0.99 7.67 -1.98 7.34 -3 7 C-2.67 6.34 -2.34 5.68 -2 5 C-1.34 5 -0.68 5 0 5 C0 4.34 0 3.68 0 3 C0.66 3 1.32 3 2 3 C2 2.34 2 1.68 2 1 C1.34 0.67 0.68 0.34 0 0 Z " fill="#C997A2" transform="translate(60,58)"/>
<path d="M0 0 C1.98 0 3.96 0 6 0 C6 0.66 6 1.32 6 2 C8.97 2.495 8.97 2.495 12 3 C11.67 3.99 11.34 4.98 11 6 C11 5.34 11 4.68 11 4 C10.3296875 4.16242188 9.659375 4.32484375 8.96875 4.4921875 C-1.33750451 6.25509946 -12.66224103 4.99129196 -23 4 C-23 3.67 -23 3.34 -23 3 C-20.47958689 2.80332911 -17.95911728 2.61745683 -15.4375 2.4375 C-14.73302734 2.38142578 -14.02855469 2.32535156 -13.30273438 2.26757812 C-8.68561569 1.94842246 -4.5591248 2.19121965 0 3 C0 2.01 0 1.02 0 0 Z " fill="#FBBABA" transform="translate(114,95)"/>
<path d="M0 0 C1.65 0 3.3 0 5 0 C5 0.33 5 0.66 5 1 C7.97 1 10.94 1 14 1 C13.67 2.65 13.34 4.3 13 6 C8.71 6 4.42 6 0 6 C0 4.02 0 2.04 0 0 Z " fill="#F0A7AA" transform="translate(62,75)"/>
<path d="M0 0 C0.33 0.66 0.66 1.32 1 2 C2.98 2 4.96 2 7 2 C7.33 2.99 7.66 3.98 8 5 C8.66 5 9.32 5 10 5 C10.33 6.32 10.66 7.64 11 9 C7.17679443 10.42258812 4.08718695 11.24042276 0 11 C0.66 10.67 1.32 10.34 2 10 C1.67 8.35 1.34 6.7 1 5 C2.65 5.33 4.3 5.66 6 6 C6 5.34 6 4.68 6 4 C3.03 3.505 3.03 3.505 0 3 C0 2.01 0 1.02 0 0 Z " fill="#E8ADAA" transform="translate(8,79)"/>
<path d="M0 0 C0 0.99 0 1.98 0 3 C3.465 4.485 3.465 4.485 7 6 C7 6.66 7 7.32 7 8 C2.71 8 -1.58 8 -6 8 C-6 7.01 -6 6.02 -6 5 C-5.34 4.67 -4.68 4.34 -4 4 C-4.99 3.67 -5.98 3.34 -7 3 C-7 2.34 -7 1.68 -7 1 C-4.50935112 0.31292445 -2.62113708 0 0 0 Z " fill="#E08BA2" transform="translate(180,69)"/>
<path d="M0 0 C1.65 0 3.3 0 5 0 C5.33 0.99 5.66 1.98 6 3 C2.5980513 5.09350689 -0.05272412 5.17942163 -4 5 C-4 5.66 -4 6.32 -4 7 C-5.98 7 -7.96 7 -10 7 C-10 6.01 -10 5.02 -10 4 C-6.49223216 2.39644899 -3.85645121 1.77963136 0 2 C0 1.34 0 0.68 0 0 Z " fill="#DE9BA4" transform="translate(92,66)"/>
<path d="M0 0 C6.625 -0.25 6.625 -0.25 10 2 C9.01 2.495 9.01 2.495 8 3 C6.86649466 5.01669827 6.86649466 5.01669827 6 7 C3.125 7.1875 3.125 7.1875 0 7 C-0.66 6.01 -1.32 5.02 -2 4 C-1.34 2.68 -0.68 1.36 0 0 Z " fill="#F7BCBC" transform="translate(129,67)"/>
<path d="M0 0 C3.96 0 7.92 0 12 0 C12 1.32 12 2.64 12 4 C10.68 3.67 9.36 3.34 8 3 C7.67 3.66 7.34 4.32 7 5 C4.35139573 5.59355614 1.70802678 5.74209269 -1 6 C-0.67 4.02 -0.34 2.04 0 0 Z " fill="#D3AAB3" transform="translate(32,55)"/>
<path d="M0 0 C0 0.66 0 1.32 0 2 C0.66 2.33 1.32 2.66 2 3 C-8.89 3 -19.78 3 -31 3 C-28.29522008 0.29522008 -26.75132359 0.69320944 -22.96875 0.5859375 C-21.16470703 0.52792969 -21.16470703 0.52792969 -19.32421875 0.46875 C-17.43123047 0.42234375 -17.43123047 0.42234375 -15.5 0.375 C-13.60701172 0.31699219 -13.60701172 0.31699219 -11.67578125 0.2578125 C-3.08510045 0 -3.08510045 0 0 0 Z " fill="#D5DFD2" transform="translate(154,230)"/>
<path d="M0 0 C1.76953125 1.51953125 1.76953125 1.51953125 3 3 C-3.40766041 4.83292414 -8.41276707 5.04559253 -15 4 C-15 3.34 -15 2.68 -15 2 C-10.14783889 0.0093698 -5.20487532 -0.92200649 0 0 Z " fill="#FEB8B2" transform="translate(41,79)"/>
<path d="M0 0 C3.35291118 -0.37254569 4.6038423 -0.31050198 7.3125 1.8125 C9 4 9 4 9 7 C5.04 6.67 1.08 6.34 -3 6 C-2.34 5.67 -1.68 5.34 -1 5 C-0.34444881 2.47266765 -0.34444881 2.47266765 0 0 Z " fill="#FCBAC0" transform="translate(171,87)"/>
<path d="M0 0 C0.99 0 1.98 0 3 0 C3 0.99 3 1.98 3 3 C2.04287109 3.09087891 2.04287109 3.09087891 1.06640625 3.18359375 C0.24011719 3.26738281 -0.58617187 3.35117188 -1.4375 3.4375 C-2.67306641 3.55931641 -2.67306641 3.55931641 -3.93359375 3.68359375 C-5.98662025 3.78930815 -5.98662025 3.78930815 -7 5 C-8.68608966 5.07205511 -10.37500659 5.08386068 -12.0625 5.0625 C-12.98160156 5.05347656 -13.90070313 5.04445313 -14.84765625 5.03515625 C-15.55792969 5.02355469 -16.26820313 5.01195313 -17 5 C-17 4.01 -17 3.02 -17 2 C-15.85660156 1.93941406 -14.71320313 1.87882812 -13.53515625 1.81640625 C-12.04425695 1.73201572 -10.55337225 1.64736698 -9.0625 1.5625 C-8.30775391 1.52318359 -7.55300781 1.48386719 -6.77539062 1.44335938 C-3.08055813 1.55961976 -3.08055813 1.55961976 0 0 Z " fill="#E89CA4" transform="translate(163,70)"/>
<path d="M0 0 C2.64 0 5.28 0 8 0 C6.68 1.32 5.36 2.64 4 4 C4.99 4.33 5.98 4.66 7 5 C7 5.33 7 5.66 7 6 C5.35 6 3.7 6 2 6 C2 6.99 2 7.98 2 9 C0.02 8.34 -1.96 7.68 -4 7 C-3.01 6.67 -2.02 6.34 -1 6 C-0.67 4.02 -0.34 2.04 0 0 Z " fill="#F3D3D1" transform="translate(96,26)"/>
<path d="M0 0 C1.07765625 0.10183594 2.1553125 0.20367187 3.265625 0.30859375 C4.08546875 0.39238281 4.9053125 0.47617187 5.75 0.5625 C4.4921875 2.046875 4.4921875 2.046875 2.75 3.5625 C-1.80553378 3.85640541 -5.80522251 3.67369437 -10.25 2.5625 C-10.25 1.9025 -10.25 1.2425 -10.25 0.5625 C-6.70049966 -0.60056443 -3.69176052 -0.36115049 0 0 Z " fill="#F0B3BA" transform="translate(122.25,56.4375)"/>
<path d="M0 0 C0 1.32 0 2.64 0 4 C-3.63 4 -7.26 4 -11 4 C-10.67 2.68 -10.34 1.36 -10 0 C-6.42355152 -1.2380014 -3.66305234 -0.74926071 0 0 Z " fill="#FCD8D7" transform="translate(187,36)"/>
<path d="M0 0 C3.63 0 7.26 0 11 0 C11 1.65 11 3.3 11 5 C6.38 4.34 1.76 3.68 -3 3 C-2.01 2.67 -1.02 2.34 0 2 C0 1.34 0 0.68 0 0 Z " fill="#FEC3C9" transform="translate(176,102)"/>
<path d="M0 0 C0.33 0.66 0.66 1.32 1 2 C-1.05078125 2.22786458 -3.1015625 2.45572917 -5.15234375 2.68359375 C-7.01140229 2.81886614 -7.01140229 2.81886614 -8 4 C-10.33297433 4.04092937 -12.66705225 4.04241723 -15 4 C-15 3.01 -15 2.02 -15 1 C-13.25215171 0.63536268 -11.50159498 0.2836922 -9.75 -0.0625 C-8.28820312 -0.35833984 -8.28820312 -0.35833984 -6.796875 -0.66015625 C-4.11254926 -0.98632432 -2.49306573 -1.00065712 0 0 Z " fill="#D5809B" transform="translate(186,81)"/>
<path d="M0 0 C1.98 0 3.96 0 6 0 C6 0.66 6 1.32 6 2 C7.32 2.33 8.64 2.66 10 3 C9.01 3.33 8.02 3.66 7 4 C6.67 4.99 6.34 5.98 6 7 C4.68 7 3.36 7 2 7 C2 6.34 2 5.68 2 5 C1.34 4.67 0.68 4.34 0 4 C0 2.68 0 1.36 0 0 Z " fill="#F8BFC5" transform="translate(144,51)"/>
<path d="M0 0 C-0.33 0.99 -0.66 1.98 -1 3 C-6.94 3 -12.88 3 -19 3 C-19 2.34 -19 1.68 -19 1 C-16.39590255 0.83218705 -13.7917318 0.66570349 -11.1875 0.5 C-10.08051758 0.42845703 -10.08051758 0.42845703 -8.95117188 0.35546875 C-5.96175412 0.16609387 -2.99625426 0 0 0 Z " fill="#E6EBDF" transform="translate(51,233)"/>
<path d="M0 0 C0.99 0.33 1.98 0.66 3 1 C2.67 1.66 2.34 2.32 2 3 C-0.80078125 3.8515625 -0.80078125 3.8515625 -4.3125 4.625 C-5.46363281 4.88539062 -6.61476562 5.14578125 -7.80078125 5.4140625 C-11 6 -11 6 -15 6 C-14.67 5.01 -14.34 4.02 -14 3 C-9.32798795 1.79431947 -4.78503708 1.90617574 0 2 C0 1.34 0 0.68 0 0 Z " fill="#D68396" transform="translate(163,87)"/>
<path d="M0 0 C2.64 0 5.28 0 8 0 C8 0.66 8 1.32 8 2 C8.66 2 9.32 2 10 2 C10 2.99 10 3.98 10 5 C10.66 5 11.32 5 12 5 C12 6.32 12 7.64 12 9 C10.35 9 8.7 9 7 9 C6.67 6.69 6.34 4.38 6 2 C3.03 1.505 3.03 1.505 0 1 C0 0.67 0 0.34 0 0 Z " fill="#D59199" transform="translate(42,73)"/>
<path d="M0 0 C0 1.32 0 2.64 0 4 C-3.63 4 -7.26 4 -11 4 C-11 3.34 -11 2.68 -11 2 C-7.36576791 -0.32590854 -4.22911669 -0.16265833 0 0 Z " fill="#F0B1B4" transform="translate(187,107)"/>
<path d="M0 0 C2.31 0 4.62 0 7 0 C7 0.33 7 0.66 7 1 C9.64 1.33 12.28 1.66 15 2 C11.13209648 4.57860235 8.23386085 4.01114505 3.8125 3.625 C3.06291016 3.56828125 2.31332031 3.5115625 1.54101562 3.453125 C-0.30676559 3.31189331 -2.153512 3.15723833 -4 3 C-2.68 2.67 -1.36 2.34 0 2 C0 1.34 0 0.68 0 0 Z " fill="#F6ADB8" transform="translate(172,99)"/>
<path d="M0 0 C1.63001953 0.01353516 1.63001953 0.01353516 3.29296875 0.02734375 C4.12441406 0.03894531 4.95585938 0.05054687 5.8125 0.0625 C5.8125 0.7225 5.8125 1.3825 5.8125 2.0625 C6.4725 2.0625 7.1325 2.0625 7.8125 2.0625 C8.1425 1.4025 8.4725 0.7425 8.8125 0.0625 C9.1425 1.3825 9.4725 2.7025 9.8125 4.0625 C7.20741364 3.94858368 4.60404454 3.82184452 2 3.6875 C1.26201172 3.6565625 0.52402344 3.625625 -0.23632812 3.59375 C-4.00643115 3.38903852 -5.98400741 3.19816173 -9.1875 1.0625 C-5.90230525 -0.03256492 -3.45086585 -0.03710608 0 0 Z " fill="#E592A0" transform="translate(39.1875,76.9375)"/>
<path d="M0 0 C0 0.99 0 1.98 0 3 C-6.435 3.495 -6.435 3.495 -13 4 C-12.67 3.01 -12.34 2.02 -12 1 C-8.32433144 -0.61729417 -3.92760325 -0.06546005 0 0 Z " fill="#E7B9BF" transform="translate(42,60)"/>
<path d="M0 0 C1.74965358 -0.05429959 3.49979787 -0.09292823 5.25 -0.125 C6.22453125 -0.14820313 7.1990625 -0.17140625 8.203125 -0.1953125 C11.0196498 0.00137219 12.60949036 0.55431084 15 2 C14 3 14 3 10.62109375 3.09765625 C9.22652923 3.09098369 7.83198257 3.07902532 6.4375 3.0625 C5.72658203 3.05798828 5.01566406 3.05347656 4.28320312 3.04882812 C2.52209987 3.03700864 0.76103964 3.01907263 -1 3 C-0.67 2.01 -0.34 1.02 0 0 Z " fill="#EFF4ED" transform="translate(161,228)"/>
<path d="M0 0 C0.66 0 1.32 0 2 0 C2 0.66 2 1.32 2 2 C4.97 2 7.94 2 11 2 C11 2.99 11 3.98 11 5 C6.71 5 2.42 5 -2 5 C-1.34 4.67 -0.68 4.34 0 4 C0 2.68 0 1.36 0 0 Z " fill="#C17F86" transform="translate(29,73)"/>
<path d="M0 0 C3.22290201 0.0289309 5.44294723 0.35779815 8.1875 2.1875 C6.8675 2.1875 5.5475 2.1875 4.1875 2.1875 C4.1875 2.8475 4.1875 3.5075 4.1875 4.1875 C-1.35096154 4.55673077 -1.35096154 4.55673077 -3.6875 2.6875 C-4.05875 2.1925 -4.43 1.6975 -4.8125 1.1875 C-3.8125 0.1875 -3.8125 0.1875 0 0 Z " fill="#F9AEC0" transform="translate(157.8125,83.8125)"/>
<path d="M0 0 C0.33 0.66 0.66 1.32 1 2 C3.02463255 2.65213292 3.02463255 2.65213292 5 3 C4.34 3 3.68 3 3 3 C3 3.66 3 4.32 3 5 C4.32 5.33 5.64 5.66 7 6 C7 6.33 7 6.66 7 7 C4.36 7 1.72 7 -1 7 C-1.66 5.02 -2.32 3.04 -3 1 C-2.01 0.67 -1.02 0.34 0 0 Z " fill="#EEABB0" transform="translate(81,71)"/>
<path d="M0 0 C1.98 0.495 1.98 0.495 4 1 C3.67 1.66 3.34 2.32 3 3 C4.65 3 6.3 3 8 3 C8 3.99 8 4.98 8 6 C5.36 6.33 2.72 6.66 0 7 C-1.04449911 3.86650268 -0.93423645 3.01031744 0 0 Z " fill="#DBEBE0" transform="translate(16,224)"/>
<path d="M0 0 C3.63 0 7.26 0 11 0 C11 0.99 11 1.98 11 3 C7.37 3 3.74 3 0 3 C0 2.01 0 1.02 0 0 Z " fill="#AED3C1" transform="translate(176,224)"/>
<path d="M0 0 C5.61 0 11.22 0 17 0 C16.67 0.66 16.34 1.32 16 2 C12.37 2 8.74 2 5 2 C5.33 2.66 5.66 3.32 6 4 C4.02 4 2.04 4 0 4 C0 2.68 0 1.36 0 0 Z " fill="#F6DFDC" transform="translate(0,12)"/>
<path d="M0 0 C1.72945653 0.14235457 3.45855654 0.28904382 5.1875 0.4375 C6.63189453 0.55931641 6.63189453 0.55931641 8.10546875 0.68359375 C10.78649602 0.97666151 13.3662986 1.42703754 16 2 C14 4 14 4 11.50390625 4.01171875 C10.04791016 3.85123047 10.04791016 3.85123047 8.5625 3.6875 C7.59441406 3.58824219 6.62632813 3.48898438 5.62890625 3.38671875 C3 3 3 3 0 2 C0 1.34 0 0.68 0 0 Z " fill="#B9D4C0" transform="translate(72,252)"/>
<path d="M0 0 C5.28 0.33 10.56 0.66 16 1 C16 1.33 16 1.66 16 2 C8.08 2.495 8.08 2.495 0 3 C0 2.01 0 1.02 0 0 Z " fill="#DAE8DB" transform="translate(0,245)"/>
<path d="M0 0 C3.96 0.33 7.92 0.66 12 1 C8.71508627 3.18994248 7.16904361 3.35277339 3.3125 3.625 C1.82169922 3.73714844 1.82169922 3.73714844 0.30078125 3.8515625 C-0.83810547 3.92503906 -0.83810547 3.92503906 -2 4 C-1.34 2.68 -0.68 1.36 0 0 Z " fill="#ECABB0" transform="translate(156,99)"/>
<path d="M0 0 C0 1.32 0 2.64 0 4 C-3.63 4 -7.26 4 -11 4 C-6.63257174 0.72442881 -5.35208648 0 0 0 Z " fill="#E59AA4" transform="translate(76,76)"/>
<path d="M0 0 C1.45823212 -0.0270043 2.91660675 -0.04639787 4.375 -0.0625 C5.18710938 -0.07410156 5.99921875 -0.08570313 6.8359375 -0.09765625 C9 0 9 0 11 1 C11 1.66 11 2.32 11 3 C3.51003542 4.35064935 3.51003542 4.35064935 1 2.625 C0 1 0 1 0 0 Z " fill="#EDB9BE" transform="translate(95,42)"/>
<path d="M0 0 C2.64 0.33 5.28 0.66 8 1 C8 1.99 8 2.98 8 4 C5.03 4 2.06 4 -1 4 C-1.33 3.34 -1.66 2.68 -2 2 C-1.34 2 -0.68 2 0 2 C0 1.34 0 0.68 0 0 Z " fill="#FEE1E0" transform="translate(152,34)"/>
<path d="M0 0 C0 1.32 0 2.64 0 4 C-3.3 4 -6.6 4 -10 4 C-10 3.34 -10 2.68 -10 2 C-6.38026598 0.68373308 -3.90432869 0 0 0 Z " fill="#E7F6EC" transform="translate(187,227)"/>
<path d="M0 0 C0.33 0.99 0.66 1.98 1 3 C-5.93 2.67 -12.86 2.34 -20 2 C-20 1.67 -20 1.34 -20 1 C-17.60429729 0.8312461 -15.20846637 0.66493164 -12.8125 0.5 C-12.13896484 0.45230469 -11.46542969 0.40460938 -10.77148438 0.35546875 C-7.17363248 0.10976179 -3.60627694 -0.05601984 0 0 Z " fill="#B0D2BF" transform="translate(164,224)"/>
<path d="M0 0 C1.4540625 0.0309375 1.4540625 0.0309375 2.9375 0.0625 C2.9375 1.0525 2.9375 2.0425 2.9375 3.0625 C1.2875 3.0625 -0.3625 3.0625 -2.0625 3.0625 C-2.0625 3.7225 -2.0625 4.3825 -2.0625 5.0625 C-3.3825 5.0625 -4.7025 5.0625 -6.0625 5.0625 C-3.64893617 0.07446809 -3.64893617 0.07446809 0 0 Z " fill="#EDA6A0" transform="translate(10.0625,67.9375)"/>
<path d="M0 0 C2.31 0 4.62 0 7 0 C7 0.99 7 1.98 7 3 C4 5 4 5 1.8125 4.625 C1.214375 4.41875 0.61625 4.2125 0 4 C0 2.68 0 1.36 0 0 Z " fill="#FDB9B7" transform="translate(24,66)"/>
<path d="M0 0 C2.31 0.33 4.62 0.66 7 1 C5.68 1.33 4.36 1.66 3 2 C3 2.66 3 3.32 3 4 C4.65 4 6.3 4 8 4 C8 4.33 8 4.66 8 5 C5.69 5 3.38 5 1 5 C0.67 5.99 0.34 6.98 0 8 C-0.99 7.67 -1.98 7.34 -3 7 C-2.67 6.34 -2.34 5.68 -2 5 C-1.34 5 -0.68 5 0 5 C0 4.34 0 3.68 0 3 C0.66 3 1.32 3 2 3 C2 2.34 2 1.68 2 1 C1.34 0.67 0.68 0.34 0 0 Z " fill="#DEA1AB" transform="translate(60,58)"/>
<path d="M0 0 C4.29 0 8.58 0 13 0 C13 0.99 13 1.98 13 3 C11.02013918 2.88652381 9.04108402 2.7589065 7.0625 2.625 C5.96035156 2.55539063 4.85820313 2.48578125 3.72265625 2.4140625 C2.82417969 2.27742188 1.92570312 2.14078125 1 2 C0.67 1.34 0.34 0.68 0 0 Z " fill="#D1A1A9" transform="translate(78,48)"/>
<path d="M0 0 C3.3 0 6.6 0 10 0 C10 0.99 10 1.98 10 3 C8.375 3.6875 8.375 3.6875 6 4 C2.75 2.5625 2.75 2.5625 0 1 C0 0.67 0 0.34 0 0 Z " fill="#F4C1BC" transform="translate(65,132)"/>
<path d="M0 0 C2.97 0 5.94 0 9 0 C8.67 1.32 8.34 2.64 8 4 C5.36 4 2.72 4 0 4 C0 2.68 0 1.36 0 0 Z " fill="#EEA4AC" transform="translate(104,72)"/>
<path d="M0 0 C1.32 0 2.64 0 4 0 C4.12375 0.94875 4.2475 1.8975 4.375 2.875 C4.71687177 6.08667191 4.71687177 6.08667191 7 8 C5.68 8 4.36 8 3 8 C3 7.01 3 6.02 3 5 C2.01 5 1.02 5 0 5 C0 3.35 0 1.7 0 0 Z " fill="#FEBAC6" transform="translate(169,72)"/>
<path d="M0 0 C3.96 0.33 7.92 0.66 12 1 C12 1.66 12 2.32 12 3 C8.37 3 4.74 3 1 3 C0.67 2.01 0.34 1.02 0 0 Z " fill="#F2BCB7" transform="translate(4,125)"/>
<path d="M0 0 C0.33 0.66 0.66 1.32 1 2 C1.99 2.33 2.98 2.66 4 3 C0.17679443 4.42258812 -2.91281305 5.24042276 -7 5 C-7 4.01 -7 3.02 -7 2 C-4.69 2 -2.38 2 0 2 C0 1.34 0 0.68 0 0 Z " fill="#EC95A3" transform="translate(127,91)"/>
<path d="M0 0 C-1 1 -1 1 -3.5625 1.0625 C-4.7690625 1.0315625 -4.7690625 1.0315625 -6 1 C-6 1.66 -6 2.32 -6 3 C-7.32 2.67 -8.64 2.34 -10 2 C-9.67 1.01 -9.34 0.02 -9 -1 C-5.22102349 -2.0497157 -3.35080929 -2.10976881 0 0 Z " fill="#F0B3B7" transform="translate(98,65)"/>
<path d="M0 0 C-0.99 0.33 -1.98 0.66 -3 1 C-3.73323796 3.01508358 -3.73323796 3.01508358 -4 5 C-4.99 5 -5.98 5 -7 5 C-7.33 3.35 -7.66 1.7 -8 0 C-5.13822943 -1.43088528 -3.06624227 -0.59991697 0 0 Z " fill="#C6A2AA" transform="translate(35,56)"/>
<path d="M0 0 C3.3 0 6.6 0 10 0 C9.67 0.99 9.34 1.98 9 3 C5.7 2.67 2.4 2.34 -1 2 C-0.67 1.34 -0.34 0.68 0 0 Z " fill="#FDCFD3" transform="translate(165,49)"/>
<path d="M0 0 C-0.99 0 -1.98 0 -3 0 C-3 1.32 -3 2.64 -3 4 C-4.98 4 -6.96 4 -9 4 C-9 3.01 -9 2.02 -9 1 C-5.57367167 -0.61798838 -3.61944899 -1.34053666 0 0 Z " fill="#E6A0AB" transform="translate(91,69)"/>
<path d="M0 0 C1.32 0 2.64 0 4 0 C4 0.66 4 1.32 4 2 C5.32 2.33 6.64 2.66 8 3 C6.68 3 5.36 3 4 3 C4 3.66 4 4.32 4 5 C2.02 4.34 0.04 3.68 -2 3 C-1.34 2.67 -0.68 2.34 0 2 C0 1.34 0 0.68 0 0 Z " fill="#EE98A8" transform="translate(169,67)"/>
<path d="M0 0 C0.99 0 1.98 0 3 0 C3.33 0.99 3.66 1.98 4 3 C4.66 3.66 5.32 4.32 6 5 C3.6875 5.625 3.6875 5.625 1 6 C0.01 5.34 -0.98 4.68 -2 4 C-1.34 2.68 -0.68 1.36 0 0 Z " fill="#F2AFB0" transform="translate(21,57)"/>
<path d="M0 0 C5.94 0.99 5.94 0.99 12 2 C12 2.99 12 3.98 12 5 C10.35 5 8.7 5 7 5 C7 4.34 7 3.68 7 3 C4.69 2.67 2.38 2.34 0 2 C0 1.34 0 0.68 0 0 Z " fill="#EAB7BE" transform="translate(76,48)"/>
<path d="M0 0 C1.32 0 2.64 0 4 0 C4 0.66 4 1.32 4 2 C5.65 2.33 7.3 2.66 9 3 C9 3.33 9 3.66 9 4 C4.05 4 -0.9 4 -6 4 C-6 3.67 -6 3.34 -6 3 C-4.02 2.67 -2.04 2.34 0 2 C0 1.34 0 0.68 0 0 Z " fill="#F0EEE2" transform="translate(54,235)"/>
<path d="M0 0 C3.17896475 0.06935923 5.42117618 0.44745079 8.125 2.25 C5.28943413 3.66778293 3.1341294 3.11257622 0 2.8125 C-1.09570312 2.71066406 -2.19140625 2.60882813 -3.3203125 2.50390625 C-4.58488281 2.37822266 -4.58488281 2.37822266 -5.875 2.25 C-3.875 0.25 -3.875 0.25 0 0 Z " fill="#F6BEC1" transform="translate(167.875,135.75)"/>
<path d="M0 0 C1.32 0.33 2.64 0.66 4 1 C3.67 1.99 3.34 2.98 3 4 C3.99 4 4.98 4 6 4 C5.67 4.99 5.34 5.98 5 7 C4.01 7 3.02 7 2 7 C2 5.68 2 4.36 2 3 C1.34 3 0.68 3 0 3 C0 2.01 0 1.02 0 0 Z " fill="#F2BFBF" transform="translate(125,43)"/>
<path d="M0 0 C2.97 0 5.94 0 9 0 C8.67 0.99 8.34 1.98 8 3 C5.125 3.1875 5.125 3.1875 2 3 C1.34 2.01 0.68 1.02 0 0 Z " fill="#F4B3B5" transform="translate(127,71)"/>
<path d="M0 0 C0.66 0 1.32 0 2 0 C2.185625 1.2065625 2.185625 1.2065625 2.375 2.4375 C2.58125 3.283125 2.7875 4.12875 3 5 C3.66 5.33 4.32 5.66 5 6 C4.34 6.66 3.68 7.32 3 8 C2.67 7.01 2.34 6.02 2 5 C1.01 4.67 0.02 4.34 -1 4 C-0.67 2.68 -0.34 1.36 0 0 Z " fill="#E0A9B2" transform="translate(25,56)"/>
<path d="M0 0 C2.31 0 4.62 0 7 0 C6.67 0.99 6.34 1.98 6 3 C3.69 3 1.38 3 -1 3 C-0.67 2.01 -0.34 1.02 0 0 Z " fill="#FAD5D5" transform="translate(81,34)"/>
<path d="M0 0 C2 3 2 3 2 5 C-1.63 5 -5.26 5 -9 5 C-9 4.67 -9 4.34 -9 4 C-8.43410156 3.87882812 -7.86820312 3.75765625 -7.28515625 3.6328125 C-6.18494141 3.38144531 -6.18494141 3.38144531 -5.0625 3.125 C-4.33160156 2.96257812 -3.60070312 2.80015625 -2.84765625 2.6328125 C-0.79299706 2.17038477 -0.79299706 2.17038477 0 0 Z " fill="#EEA8B2" transform="translate(98,67)"/>
<path d="M0 0 C0 1.65 0 3.3 0 5 C-2.16874252 4.49396008 -3.99967627 4.00016187 -6 3 C-6 2.34 -6 1.68 -6 1 C-3 0 -3 0 0 0 Z " fill="#FDACBF" transform="translate(187,68)"/>
<path d="M0 0 C1.65 0 3.3 0 5 0 C3.02 2.97 3.02 2.97 1 6 C0.34 5.67 -0.32 5.34 -1 5 C-0.67 3.35 -0.34 1.7 0 0 Z " fill="#F6B2A7" transform="translate(14,72)"/>
<path d="M0 0 C2.64 0.33 5.28 0.66 8 1 C4.73454239 2.88391785 1.71888239 3.49287967 -2 4 C-1.34 3.67 -0.68 3.34 0 3 C0 2.01 0 1.02 0 0 Z " fill="#FCB5AD" transform="translate(32,68)"/>
<path d="M0 0 C2.31 0 4.62 0 7 0 C6.67 0.99 6.34 1.98 6 3 C4.02 3 2.04 3 0 3 C0 2.01 0 1.02 0 0 Z " fill="#E4AEB4" transform="translate(49,50)"/>
<path d="M0 0 C0 0.66 0 1.32 0 2 C0.66 2.33 1.32 2.66 2 3 C-2.16138263 3.08159574 -5.9472484 2.98248524 -10 2 C-10 1.67 -10 1.34 -10 1 C-2.25 0 -2.25 0 0 0 Z " fill="#DDE4D8" transform="translate(154,230)"/>
<path d="M0 0 C-0.33 0.99 -0.66 1.98 -1 3 C-3.31 3 -5.62 3 -8 3 C-8 2.34 -8 1.68 -8 1 C-5.23735711 0.40267181 -2.83967231 0 0 0 Z " fill="#FEDFD6" transform="translate(176,129)"/>
<path d="M0 0 C0.99 0 1.98 0 3 0 C3 0.66 3 1.32 3 2 C4.98 2 6.96 2 9 2 C9.33 2.66 9.66 3.32 10 4 C6.7 3.67 3.4 3.34 0 3 C0 2.01 0 1.02 0 0 Z " fill="#F4B7BC" transform="translate(130,136)"/>
<path d="M0 0 C1.98 0 3.96 0 6 0 C6 0.99 6 1.98 6 3 C4.02 3 2.04 3 0 3 C0 2.01 0 1.02 0 0 Z " fill="#E791A1" transform="translate(181,98)"/>
<path d="M0 0 C2.97 0.495 2.97 0.495 6 1 C6 1.99 6 2.98 6 4 C3.03 3.505 3.03 3.505 0 3 C0 2.01 0 1.02 0 0 Z " fill="#FEC4C9" transform="translate(174,90)"/>
<path d="M0 0 C0.99 0 1.98 0 3 0 C3 0.66 3 1.32 3 2 C3.66 2 4.32 2 5 2 C5.33 1.34 5.66 0.68 6 0 C6.33 1.32 6.66 2.64 7 4 C4.36 3.67 1.72 3.34 -1 3 C-0.67 2.01 -0.34 1.02 0 0 Z " fill="#EC9EAD" transform="translate(42,77)"/>
<path d="M0 0 C0.99 0 1.98 0 3 0 C3 1.32 3 2.64 3 4 C2.01 4 1.02 4 0 4 C-0.33 4.66 -0.66 5.32 -1 6 C-1.33 5.34 -1.66 4.68 -2 4 C-1.0625 1.875 -1.0625 1.875 0 0 Z " fill="#E99BAC" transform="translate(184,64)"/>
<path d="M0 0 C2.31 0 4.62 0 7 0 C7 0.66 7 1.32 7 2 C4.36 2.66 1.72 3.32 -1 4 C-0.67 2.68 -0.34 1.36 0 0 Z " fill="#F6BAC2" transform="translate(49,53)"/>
<path d="M0 0 C2.64 0 5.28 0 8 0 C7.67 0.99 7.34 1.98 7 3 C4.36 2.67 1.72 2.34 -1 2 C-0.67 1.34 -0.34 0.68 0 0 Z " fill="#EDD1CE" transform="translate(5,13)"/>
<path d="M0 0 C1.98 0 3.96 0 6 0 C5.67 0.99 5.34 1.98 5 3 C3.02 3 1.04 3 -1 3 C-0.67 2.01 -0.34 1.02 0 0 Z " fill="#FEB8BE" transform="translate(115,74)"/>
<path d="M0 0 C2.4164124 0.48328248 4.65832183 1.21944061 7 2 C7 2.66 7 3.32 7 4 C3.62537285 3.45276317 1.91765 2.9451 -1 1 C-0.67 0.67 -0.34 0.34 0 0 Z " fill="#EF99B1" transform="translate(180,71)"/>
<path d="M0 0 C1.98 0 3.96 0 6 0 C6 0.99 6 1.98 6 3 C4.35 3 2.7 3 1 3 C0.67 2.01 0.34 1.02 0 0 Z " fill="#EBAFB6" transform="translate(144,51)"/>
<path d="M0 0 C-1.98 0.99 -1.98 0.99 -4 2 C-4 2.66 -4 3.32 -4 4 C-5.65 3.67 -7.3 3.34 -9 3 C-6.38997624 -0.48003168 -4.1689578 -0.27793052 0 0 Z " fill="#F9D0D1" transform="translate(152,32)"/>
</svg>
